<?xml version="1.0" encoding="utf-8"?>
<!-- Generator: Adobe Illustrator 16.0.0, SVG Export Plug-In . SVG Version: 6.00 Build 0)  -->
<!DOCTYPE svg PUBLIC "-//W3C//DTD SVG 1.1//EN" "http://www.w3.org/Graphics/SVG/1.1/DTD/svg11.dtd">
<svg version="1.1" id="Layer_1" xmlns="http://www.w3.org/2000/svg" xmlns:xlink="http://www.w3.org/1999/xlink" x="0px" y="0px"
	 width="595.28px" height="579.903px" viewBox="0 0 595.28 579.903" enable-background="new 0 0 595.28 579.903"
	 xml:space="preserve">
<path fill-rule="evenodd" clip-rule="evenodd" fill="#BAE0CD" d="M11,168.87c2.299-7.727,3.174-15.808,6.536-23.292
	c12.81-28.517,34.356-46.273,65.154-51.497c37.725-6.398,74.361,12.89,90.8,47.055c8.714,18.112,10.841,37.174,6.211,56.792
	c-0.874,3.701,0.034,6.478,2.932,8.097c2.992,1.672,6.206,1.555,9.104-1.245c19.378-18.721,41.821-32.242,68.047-38.927
	c16.979-4.328,34.165-6.073,51.788-4.239c17.372,1.808,33.844,6.14,49.786,13.227c6.563,2.917,12.802-1.047,18.189-4.261
	c11.284-6.734,12.757-16.623,7.42-29.08c-6.146-14.342-9.612-28.979-8.97-44.511c0.858-20.744,7.934-39.273,20.871-55.471
	c14.828-18.565,34.229-29.585,57.407-34.298c2.217-0.45,4.751,0.562,6.667-1.331c6.666,0,13.331,0,19.997,0
	c0.566,0.304,1.107,0.806,1.703,0.883c25.039,3.235,45.788,14.407,61.675,34.03c18.024,22.263,25.356,47.899,20.217,76.052
	c-6.016,32.942-24.638,56.968-55.395,70.861c-15.73,7.106-32.371,10.346-49.541,7.163c-14.309-2.652-25.914,0.551-34.668,12.523
	c-5.632,7.7-6.536,16.134-2.414,22.794c19.055,30.791,26.725,64.195,22.229,100.134c-2.631,21.024-9.733,40.631-20.833,58.751
	c-1.216,1.983-3.45,4.313-0.49,6.552c2.734,2.07,5.377,4.279,9.366,1.794c22.388-13.95,46.649-19.218,72.536-13.495
	c38.725,8.559,63.974,32.232,75.742,70.107c1.699,5.469,2.593,11.188,3.859,16.791c0,6.666,0,13.331,0,19.997
	c-0.319,0.732-0.846,1.442-0.928,2.2c-4.29,39.54-34.896,74.381-73.651,83.727c-4.772,1.15-9.605,2.048-14.409,3.063
	c-6.667,0-13.332,0-19.998,0c-5.604-1.266-11.298-2.222-16.796-3.848c-31.774-9.396-53.926-29.611-65.746-60.483
	c-10.771-28.13-8.245-55.688,5.813-82.248c0.623-1.178,1.384-2.312,1.808-3.559c0.976-2.868-0.354-5.396-2.254-7.136
	c-2.172-1.985-3.491,0.69-4.881,1.874c-21.792,18.537-46.69,30.205-75.06,34.516c-39.491,6.002-75.569-2.707-108.445-25.004
	c-9.206-6.245-17.878-13.285-24.976-21.991c-3.201-3.926-6.394-1.405-9.358-0.004c-3.291,1.556-2.384,4.326-1.079,6.852
	c6.228,12.045,9.11,24.832,9.039,38.395c-0.164,31.313-20.721,61.791-49.688,73.393c-33.265,13.322-69.258,5.258-92.572-21.793
	c-15.703-18.22-22.163-39.649-18.878-63.899c4.375-32.303,27.97-59.28,59.385-67.261c27.067-6.876,51.316-0.935,72.973,16.229
	c3.798,3.011,6.943,2.453,10.31-0.08c2.426-1.826,3.054-3.774,1.259-6.817c-15.547-26.364-22.416-54.983-20.63-85.451
	c0.994-16.962,4.741-33.512,11.722-49.129c1.444-3.232,0.89-5.773-0.872-8.382c-1.86-2.753-3.613-3.61-6.794-1.008
	c-27.081,22.154-57.235,27.45-89.444,13.614c-29.201-12.543-46.279-35.302-50.886-67.035c-0.086-0.596-0.585-1.131-0.892-1.695
	C11,181.535,11,175.202,11,168.87z M432.009,311.11c1.86-72.807-61.144-134.136-132.961-134.686
	c-73.57-0.563-134.626,61.534-135.496,132.511c-0.917,74.756,61.77,135.445,132.577,136.346
	C370.299,446.226,433.734,383.563,432.009,311.11z M473.185,21.832c-42.497-1.726-79.435,35.865-79.591,78.679
	c-0.158,43.373,36.711,79.497,78.854,79.735c43.139,0.244,79.784-36.458,79.846-79.25C552.357,57.677,515.173,20.316,473.185,21.832
	z M487.748,563.88c44.855,1.745,83.327-38.364,83.605-82.481c0.285-45.222-38.813-83.774-82.97-83.984
	c-45.077-0.213-83.71,38.794-83.861,83.099C404.369,525.476,443.324,565.473,487.748,563.88z M166.042,178.515
	c1.84-37.299-32.46-69.961-69.28-70.086c-37.44-0.127-70.023,32.843-70.215,69.542c-0.196,37.562,32.91,70.338,69.922,70.341
	C133.626,248.315,167.755,215.485,166.042,178.515z M104.978,520.885c35.356,1.246,65.082-29.786,65.338-64.537
	c0.264-35.772-30.161-65.851-65.317-65.845c-35.272,0.006-65.335,30.084-65.34,65.321C39.653,491.069,69.71,522.145,104.978,520.885
	z"/>
<path fill-rule="evenodd" clip-rule="evenodd" fill="#1EA59E" d="M346.316,527.922c-9.888,0.07-17.9-7.695-18.028-17.475
	c-0.127-9.702,7.849-17.711,17.709-17.782c9.909-0.071,17.869,7.679,17.938,17.465C364.006,519.978,356.208,527.852,346.316,527.922
	z"/>
<path fill-rule="evenodd" clip-rule="evenodd" fill="#1EA59E" d="M114.798,353.197c0.046-6.976,5.457-12.367,12.345-12.303
	c6.766,0.063,12.385,5.796,12.261,12.51c-0.125,6.825-5.768,12.413-12.478,12.356C120.135,365.704,114.752,360.129,114.798,353.197z
	"/>
<path fill-rule="evenodd" clip-rule="evenodd" fill="#42AD75" d="M313.433,484.361c0.049,5.53-4.444,10.19-9.995,10.365
	c-5.571,0.175-10.526-4.756-10.451-10.398c0.072-5.501,4.792-10.166,10.227-10.108C308.776,474.278,313.384,478.852,313.433,484.361
	z"/>
<path fill-rule="evenodd" clip-rule="evenodd" fill="#3FAC74" d="M202.943,151.469c0.088-9.06,7.209-15.933,16.375-15.805
	c8.864,0.123,15.717,7.076,15.717,15.945c0,8.996-7.209,16.247-16.11,16.205C210.026,167.773,202.855,160.438,202.943,151.469z"/>
<path fill-rule="evenodd" clip-rule="evenodd" fill="#F8FCF9" d="M432.009,311.11c1.726,72.452-61.71,135.115-135.879,134.171
	c-70.808-0.9-133.494-61.59-132.577-136.346c0.87-70.977,61.926-133.074,135.496-132.511
	C370.865,176.974,433.869,238.304,432.009,311.11z M425.422,311.182c-0.228-71.052-57.636-128.43-128.369-128.303
	c-71.67,0.129-128.886,57.87-128.494,129.673c0.387,70.663,58.157,127.503,129.363,127.28
	C368.323,439.611,425.648,381.769,425.422,311.182z"/>
<path fill-rule="evenodd" clip-rule="evenodd" fill="#F8FCFA" d="M473.185,21.832c41.988-1.516,79.173,35.845,79.109,79.164
	c-0.062,42.792-36.707,79.494-79.846,79.25c-42.144-0.238-79.013-36.362-78.854-79.735C393.75,57.697,430.688,20.106,473.185,21.832
	z M472.536,173.009c40.338,0.104,73.278-32.224,73.399-72.034c0.124-40.954-32.104-73.885-72.491-74.073
	c-40.681-0.189-73.532,32.354-73.604,72.912C399.77,140.342,432.109,172.905,472.536,173.009z"/>
<path fill-rule="evenodd" clip-rule="evenodd" fill="#F6FBFA" d="M487.748,563.88c-44.424,1.593-83.379-38.404-83.226-83.367
	c0.151-44.305,38.784-83.312,83.861-83.099c44.157,0.21,83.255,38.763,82.97,83.984C571.075,525.516,532.604,565.625,487.748,563.88
	z M488.104,401.802c-43.548-0.06-79.06,35.163-79.139,78.493c-0.081,43.873,35.113,79.437,78.686,79.51
	c43.858,0.074,79.266-35.104,79.318-78.807C567.022,437.101,531.93,401.861,488.104,401.802z"/>
<path fill-rule="evenodd" clip-rule="evenodd" fill="#F7FBF8" d="M166.042,178.515c1.714,36.97-32.416,69.8-69.573,69.797
	c-37.012-0.003-70.118-32.779-69.922-70.341c0.192-36.7,32.774-69.669,70.215-69.542
	C133.582,108.553,167.882,141.215,166.042,178.515z M96.518,113.688c-36.054-0.128-65.351,28.85-65.439,64.723
	c-0.088,35.809,29.239,65.26,65.039,65.313c35.67,0.053,64.848-28.97,65.014-64.667C161.299,142.841,132.611,113.816,96.518,113.688
	z"/>
<path fill-rule="evenodd" clip-rule="evenodd" fill="#F6FBFA" d="M104.978,520.885c-35.267,1.26-65.324-29.815-65.319-65.061
	c0.005-35.237,30.068-65.315,65.34-65.321c35.156-0.006,65.581,30.072,65.317,65.845
	C170.059,491.099,140.334,522.131,104.978,520.885z M105.328,516.095c33.782,0.076,60.712-26.625,60.817-60.299
	c0.105-33.746-26.68-60.883-60.193-60.982c-33.804-0.1-60.914,26.577-61.073,60.098C44.716,489.004,71.406,516.018,105.328,516.095z
	"/>
<path fill-rule="evenodd" clip-rule="evenodd" fill="#3FAC74" d="M466.738,240.896c9.659-0.114,17.892,7.902,18.024,17.552
	c0.133,9.597-7.931,17.84-17.608,18.001c-9.571,0.16-17.852-7.92-18.024-17.587C448.96,249.284,457.069,241.01,466.738,240.896z"/>
<path fill-rule="evenodd" clip-rule="evenodd" fill="#3CAB72" d="M425.422,311.182c0.227,70.587-57.099,128.43-127.5,128.65
	c-71.206,0.223-128.976-56.617-129.363-127.28c-0.392-71.803,56.823-129.543,128.494-129.673
	C367.786,182.751,425.194,240.129,425.422,311.182z"/>
<path fill-rule="evenodd" clip-rule="evenodd" fill="#3CAB72" d="M472.536,173.009c-40.427-0.104-72.767-32.667-72.695-73.196
	c0.071-40.558,32.923-73.101,73.604-72.912c40.388,0.188,72.615,33.12,72.491,74.073
	C545.814,140.785,512.874,173.113,472.536,173.009z"/>
<path fill-rule="evenodd" clip-rule="evenodd" fill="#18A49D" d="M488.104,401.802c43.825,0.06,78.918,35.299,78.865,79.196
	c-0.053,43.702-35.46,78.881-79.318,78.807c-43.572-0.073-78.767-35.637-78.686-79.51
	C409.045,436.965,444.557,401.742,488.104,401.802z"/>
<path fill-rule="evenodd" clip-rule="evenodd" fill="#3CAB72" d="M96.518,113.688c36.093,0.127,64.781,29.152,64.613,65.369
	c-0.166,35.697-29.344,64.72-65.014,64.667c-35.8-0.053-65.126-29.504-65.039-65.313C31.167,142.538,60.464,113.561,96.518,113.688z
	"/>
<path fill-rule="evenodd" clip-rule="evenodd" fill="#18A49D" d="M105.328,516.095c-33.922-0.077-60.612-27.091-60.45-61.184
	c0.159-33.521,27.27-60.197,61.073-60.098c33.513,0.1,60.299,27.236,60.193,60.982C166.04,489.47,139.11,516.171,105.328,516.095z"
	/>
</svg>
