<?xml version="1.0" encoding="utf-8"?>
<!-- Generator: Adobe Illustrator 16.0.0, SVG Export Plug-In . SVG Version: 6.00 Build 0)  -->
<!DOCTYPE svg PUBLIC "-//W3C//DTD SVG 1.1//EN" "http://www.w3.org/Graphics/SVG/1.1/DTD/svg11.dtd">
<svg version="1.1" id="Layer_1" xmlns="http://www.w3.org/2000/svg" xmlns:xlink="http://www.w3.org/1999/xlink" x="0px" y="0px"
	 width="1071.862px" height="980px" viewBox="0 0 1071.862 980" enable-background="new 0 0 1071.862 980" xml:space="preserve">
<path fill="#D1F0F4" d="M203.006,171.179c-0.14,0.078-1.325,0.904-2.791,4.006c-1.558,3.319,0,3.523-3.491,4.879
	c-3.523,1.356-5.456-1.761-6.048,2.728c-0.591,4.489-0.591,9.165,0,10.318c0,0-0.014,0.188,0,0.515
	c-0.436,1.293-4.021,3.288-8.759,3.974c-5.456,0.78-6.236,0.966-10.911,2.931c-4.677,1.934-12.283,5.643-16.569,10.132
	c-4.287,4.473-5.066,4.473-8.183,4.473c-3.117,0-5.456-1.761-9.54,2.541c-4.099,4.271-5.082,1.746-5.861,6.422
	c-0.779,4.676-0.577,26.888,1.372,30.005c1.948,3.117,5.845,11.3,9.352,17.349c3.508,6.033,3.508,8.573,6.236,12.656
	c2.728,4.083,4.863,5.066,4.863,7.404c0,2.338,2.743,0.204-1.746,9.743c-4.489,9.54-8.76,13.841-8.76,20.076
	c0,6.235,3.896,15.587,6.812,21.23s7.59,10.911,8.962,14.028c1.371,3.117,5.065,7.015,6.625,11.877
	c1.558,4.878,0.577,6.234,0,12.282c-0.577,6.048,0.811,11.504,2.15,14.807c1.356,3.305,4.084,5.066,4.473,7.794
	c0.39,2.727,1.746,14.029,0,17.146c-1.745,3.117-2.696,3.709-4.473,5.065c-1.761,1.356-6.827,1.948-7.029,3.693
	c-0.188,1.763-2.728,16.382-13.344,23.974c-1.652-1.56-0.436-5.191,0-7.28c0.421-2.073,2.759-9.086,1.466-17.659
	c-1.294-8.574-2.604-10.911-4.162-12.206c-1.559-1.309-3.118-3.117-2.853-4.941c0.265-1.823,0.265-5.721,1.824-7.28
	c1.558-1.558,7.262-5.189,7.262-8.308c0-3.117-1.558-8.058-3.896-10.395c-2.338-2.338-4.676-1.56-2.852-6.485
	c1.823-4.942,0.265-10.132,0.265-14.028c0-3.896-3.382-7.015-5.721-10.662c-2.338-3.632-6.234-10.646-7.015-13.764
	c-0.779-3.117-3.896-9.086-4.161-22.086c-0.249-12.984-6.75-26.748-6.75-26.748l-9.352-17.925c0,0-0.514-1.309-4.163,6.484
	c-3.631,7.793-2.073,12.22-10.911,18.189c-8.822,5.971-13.763,10.646-22.071,9.618c-8.323-1.044-12.47,0.25-15.338-2.089
	c-2.853-2.338-8.043-1.558-7.528-5.97c0.514-4.411,2.337-11.955,2.853-17.925c0.529-5.97-0.842-22.601-2.884-30.129
	c-2.042-7.544-5.939-23.91-9.057-25.204c-3.117-1.295-7.543,0.514-7.543,0.514s-2.073-10.911-4.676-14.542
	c-2.588-3.633-5.456-4.677-7.529-5.721c-2.074-1.029-6.235-1.808-7.529-3.897c-1.309-2.073-4.426-9.602-7.793-13.764
	C2.853,184.865,0,182.792,0,182.792s7.264-7.529,7.264-11.69c0-4.162,3.647-13.514,4.675-19.22
	c1.044-5.721,4.162-15.072,11.442-21.822c7.262-6.765,24.938-19.235,28.57-29.101c3.633-9.867,4.163-24.424,8.308-28.571
	c4.163-4.161,8.324-5.72,8.839-9.882c0.514-4.146,0.514-9.866,3.117-13.499c2.603-3.647,11.955-14.028,37.923-16.116
	c7.278-2.074,8.838-9.867,8.838-14.03c0-4.146,5.19-12.983,8.837-10.911c3.633,2.089,4.677,3.648,9.353,7.28
	c4.675,3.631,10.381,6.75,11.939,10.911c1.56,4.162,6.764,18.19,0,32.733c-6.749,14.543-15.058,16.101-18.175,23.38
	c-3.118,7.279-5.205,21.308-3.118,23.38c2.074,2.073,12.985,0,14.028,2.604c1.029,2.587,2.853,9.867,7.14,13.373
	c4.287,3.508,8.184,4.677,10.911,8.964c2.728,4.286,7.015,8.962,7.015,12.469c0,3.508,0.39,3.897,3.117,5.065
	c2.728,1.17,7.404,4.677,9.742,4.677c2.338,0,5.066,0,6.236,3.507c1.168,3.507,4.862,9.945,8.385,10.911
	c3.492,0.966,3.305,1.56,6.033,3.117C201.027,170.665,201.915,170.961,203.006,171.179"/>
<path fill="none" stroke="#FFFFFF" stroke-miterlimit="10" d="M203.006,171.179c-0.14,0.078-1.325,0.904-2.791,4.006
	c-1.558,3.319,0,3.523-3.491,4.879c-3.523,1.356-5.456-1.761-6.048,2.728c-0.591,4.489-0.591,9.165,0,10.318
	c0,0-0.014,0.188,0,0.515c-0.436,1.293-4.021,3.288-8.759,3.974c-5.456,0.78-6.236,0.966-10.911,2.931
	c-4.677,1.934-12.283,5.643-16.569,10.132c-4.287,4.473-5.066,4.473-8.183,4.473c-3.117,0-5.456-1.761-9.54,2.541
	c-4.099,4.271-5.082,1.746-5.861,6.422c-0.779,4.676-0.577,26.888,1.372,30.005c1.948,3.117,5.845,11.3,9.352,17.349
	c3.508,6.033,3.508,8.573,6.236,12.656c2.728,4.083,4.863,5.066,4.863,7.404c0,2.338,2.743,0.204-1.746,9.743
	c-4.489,9.54-8.76,13.841-8.76,20.076c0,6.235,3.896,15.587,6.812,21.23s7.59,10.911,8.962,14.028
	c1.371,3.117,5.065,7.015,6.625,11.877c1.558,4.878,0.577,6.234,0,12.282c-0.577,6.048,0.811,11.504,2.15,14.807
	c1.356,3.305,4.084,5.066,4.473,7.794c0.39,2.727,1.746,14.029,0,17.146c-1.745,3.117-2.696,3.709-4.473,5.065
	c-1.761,1.356-6.827,1.948-7.029,3.693c-0.188,1.763-2.728,16.382-13.344,23.974c-1.652-1.56-0.436-5.191,0-7.28
	c0.421-2.073,2.759-9.086,1.466-17.659c-1.294-8.574-2.604-10.911-4.162-12.206c-1.559-1.309-3.118-3.117-2.853-4.941
	c0.265-1.823,0.265-5.721,1.824-7.28c1.558-1.558,7.262-5.189,7.262-8.308c0-3.117-1.558-8.058-3.896-10.395
	c-2.338-2.338-4.676-1.56-2.852-6.485c1.823-4.942,0.265-10.132,0.265-14.028c0-3.896-3.382-7.015-5.721-10.662
	c-2.338-3.632-6.234-10.646-7.015-13.764c-0.779-3.117-3.896-9.086-4.161-22.086c-0.249-12.984-6.75-26.748-6.75-26.748
	l-9.352-17.925c0,0-0.514-1.309-4.163,6.484c-3.631,7.793-2.073,12.22-10.911,18.189c-8.822,5.971-13.763,10.646-22.071,9.618
	c-8.323-1.044-12.47,0.25-15.338-2.089c-2.853-2.338-8.043-1.558-7.528-5.97c0.514-4.411,2.337-11.955,2.853-17.925
	c0.529-5.97-0.842-22.601-2.884-30.129c-2.042-7.544-5.939-23.91-9.057-25.204c-3.117-1.295-7.543,0.514-7.543,0.514
	s-2.073-10.911-4.676-14.542c-2.588-3.633-5.456-4.677-7.529-5.721c-2.074-1.029-6.235-1.808-7.529-3.897
	c-1.309-2.073-4.426-9.602-7.793-13.764C2.853,184.865,0,182.792,0,182.792s7.264-7.529,7.264-11.69
	c0-4.162,3.647-13.514,4.675-19.22c1.044-5.721,4.162-15.072,11.442-21.822c7.262-6.765,24.938-19.235,28.57-29.101
	c3.633-9.867,4.163-24.424,8.308-28.571c4.163-4.161,8.324-5.72,8.839-9.882c0.514-4.146,0.514-9.866,3.117-13.499
	c2.603-3.647,11.955-14.028,37.923-16.116c7.278-2.074,8.838-9.867,8.838-14.03c0-4.146,5.19-12.983,8.837-10.911
	c3.633,2.089,4.677,3.648,9.353,7.28c4.675,3.631,10.381,6.75,11.939,10.911c1.56,4.162,6.764,18.19,0,32.733
	c-6.749,14.543-15.058,16.101-18.175,23.38c-3.118,7.279-5.205,21.308-3.118,23.38c2.074,2.073,12.985,0,14.028,2.604
	c1.029,2.587,2.853,9.867,7.14,13.373c4.287,3.508,8.184,4.677,10.911,8.964c2.728,4.286,7.015,8.962,7.015,12.469
	c0,3.508,0.39,3.897,3.117,5.065c2.728,1.17,7.404,4.677,9.742,4.677c2.338,0,5.066,0,6.236,3.507
	c1.168,3.507,4.862,9.945,8.385,10.911c3.492,0.966,3.305,1.56,6.033,3.117C201.027,170.665,201.915,170.961,203.006,171.179z"/>
<path fill="#D1F0F4" d="M319.005,349.573c-3.896-2.338-4.926-5.456-7.794-4.941c-2.852,0.529-6.748,0.529-12.204,0.529
	s-11.426,1.03-17.147-0.265c-5.72-1.293-8.837-0.265-12.204,0.265c-3.383,0.516-5.985,2.074-7.015,4.412
	c-1.044,2.338-3.647,4.412-5.331,6.5c-1.684,2.073-11.565,8.572-11.815,11.426c-0.265,2.852-1.044,11.176,0,12.983
	c1.028,1.824,2.463,6.406-2.011,12.798c-1.558-3.71-2.182-6.797-4.675-7.264c-3.117-0.592-7.217-0.982-10.132,0.577
	c-2.931,1.558-1.372,2.338-6.438,2.728c-5.066,0.389-6.033,1.745-8.962-0.39c-2.931-2.136-5.643-11.691-7.981-12.673
	c-2.338-0.966-4.301-4.084-7.014-4.271c-2.744-0.203-8.386,1.153-8.386,1.153s0.39,10.132,0,14.621
	c-0.39,4.489-1.372,6.625-1.372,12.47c0,5.845-3.039,15.586-5.642,22.336c-2.603,6.764-9.618,12.735-11.691,21.042
	c-2.073,8.323-0.779,25.718,0,27.278c0.78,1.558,5.456,2.088,7.794,0c2.338-2.074,4.676-6.236,6.236-5.705
	c1.558,0.514,2.072,1.028,1.293,12.204c-0.779,11.176,4.427,25.984,6.234,28.322c1.824,2.337,3.384,4.41,4.427,9.352
	c1.028,4.926,4.412,10.646,6.749,11.69c2.338,1.029,12.47,7.264,15.587,8.043c3.118,0.78,9.353,2.338,10.646,5.72
	c1.31,3.385,2.089,8.839,4.427,10.133c0.421,0.233,1.028,0.623,1.714,1.122c0.811,4.817-3.149,5.705-5.487,7.638
	c-2.336,1.964-7.59,0.405-10.521-1.356c-2.93-1.76-7.201-8.183-10.724-11.487c-3.491-3.319-6.609-3.71-10.708-3.896
	c-4.099-0.203-9.337-2.447-9.337-2.447c-1.419-2.525-2.791-4.504-3.257-6.204c-0.779-2.853-1.56-4.677-1.56-4.677
	s-2.087-1.292-5.72-4.145c-3.631-2.869-8.215-5.456-8.915-7.545c-0.702-2.073-3.289-7.014-5.627-9.087s-6.766-4.411-8.573-7.279
	c-1.824-2.852-1.559-4.676-3.383-4.676c-1.823,0-5.19-0.515-5.969-3.367c-0.779-2.868,1.294-12.22,2.587-14.293
	c1.31-2.073,2.338-2.338,2.868-4.411c0.514-2.089,0.514-8.324,2.338-9.617c1.809-1.295,4.147-7.015,3.896-9.867
	c-0.265-2.868-2.088-4.676-2.088-4.676s-8.122,4.411-9.774,2.852c10.616-7.59,13.156-22.211,13.343-23.972
	c0.202-1.746,5.269-2.338,7.029-3.694c1.777-1.356,2.728-1.949,4.473-5.066c1.747-3.117,0.39-14.418,0-17.146
	c-0.39-2.728-3.117-4.489-4.473-7.794c-1.34-3.304-2.728-8.76-2.15-14.808c0.577-6.047,1.558-7.403,0-12.281
	c-1.56-4.864-5.254-8.76-6.625-11.877c-1.372-3.119-6.047-8.387-8.963-14.029c-2.914-5.642-6.811-14.995-6.811-21.229
	c0-6.234,4.271-10.537,8.76-20.076c4.489-9.539,1.745-7.404,1.745-9.741c0-2.338-2.135-3.321-4.863-7.404
	c-2.728-4.083-2.728-6.625-6.235-12.657c-3.507-6.048-7.403-14.231-9.352-17.348c-1.949-3.118-2.151-25.33-1.372-30.005
	c0.779-4.677,1.762-2.152,5.861-6.422c4.083-4.302,6.422-2.542,9.54-2.542c3.117,0,3.897,0,8.183-4.473
	c4.287-4.489,11.893-8.199,16.569-10.132c4.675-1.963,5.455-2.15,10.911-2.93c4.738-0.686,8.323-2.681,8.76-3.975
	c0.031,1.216,0.358,4.458,2.603,8.136c2.854,4.677,2.073,11.691,3.897,14.03c1.809,2.337,14.278,4.675,15.836,11.425
	c1.558,6.748,3.118,20.527,1.823,29.101c-1.293,8.573-0.779,12.469-0.779,12.469s10.911,1.56,12.47,0
	c1.558-1.558,7.278-5.985,9.087-5.985c1.824,0,4.941,1.044,9.103,1.559c4.146,0.531,13.25,1.31,16.367-0.25
	c3.118-1.558,9.353-9.103,12.205-9.617s10.646,2.853,16.366,11.425c5.72,8.572,9.353,7.544,9.618,12.735
	c0.249,5.19-0.265,14.028,4.675,19.483c4.926,5.456,13.249,12.735,15.058,17.411C320.83,320.223,329.137,335.28,319.005,349.573"/>
<path fill="none" stroke="#FFFFFF" stroke-miterlimit="10" d="M319.005,349.573c-3.896-2.338-4.926-5.456-7.794-4.941
	c-2.852,0.529-6.748,0.529-12.204,0.529s-11.426,1.03-17.147-0.265c-5.72-1.293-8.837-0.265-12.204,0.265
	c-3.383,0.516-5.985,2.074-7.015,4.412c-1.044,2.338-3.647,4.412-5.331,6.5c-1.684,2.073-11.565,8.572-11.815,11.426
	c-0.265,2.852-1.044,11.176,0,12.983c1.028,1.824,2.463,6.406-2.011,12.798c-1.558-3.71-2.182-6.797-4.675-7.264
	c-3.117-0.592-7.217-0.982-10.132,0.577c-2.931,1.558-1.372,2.338-6.438,2.728c-5.066,0.389-6.033,1.745-8.962-0.39
	c-2.931-2.136-5.643-11.691-7.981-12.673c-2.338-0.966-4.301-4.084-7.014-4.271c-2.744-0.203-8.386,1.153-8.386,1.153
	s0.39,10.132,0,14.621c-0.39,4.489-1.372,6.625-1.372,12.47c0,5.845-3.039,15.586-5.642,22.336
	c-2.603,6.764-9.618,12.735-11.691,21.042c-2.073,8.323-0.779,25.718,0,27.278c0.78,1.558,5.456,2.088,7.794,0
	c2.338-2.074,4.676-6.236,6.236-5.705c1.558,0.514,2.072,1.028,1.293,12.204c-0.779,11.176,4.427,25.984,6.234,28.322
	c1.824,2.337,3.384,4.41,4.427,9.352c1.028,4.926,4.412,10.646,6.749,11.69c2.338,1.029,12.47,7.264,15.587,8.043
	c3.118,0.78,9.353,2.338,10.646,5.72c1.31,3.385,2.089,8.839,4.427,10.133c0.421,0.233,1.028,0.623,1.714,1.122
	c0.811,4.817-3.149,5.705-5.487,7.638c-2.336,1.964-7.59,0.405-10.521-1.356c-2.93-1.76-7.201-8.183-10.724-11.487
	c-3.491-3.319-6.609-3.71-10.708-3.896c-4.099-0.203-9.337-2.447-9.337-2.447c-1.419-2.525-2.791-4.504-3.257-6.204
	c-0.779-2.853-1.56-4.677-1.56-4.677s-2.087-1.292-5.72-4.145c-3.631-2.869-8.215-5.456-8.915-7.545
	c-0.702-2.073-3.289-7.014-5.627-9.087s-6.766-4.411-8.573-7.279c-1.824-2.852-1.559-4.676-3.383-4.676
	c-1.823,0-5.19-0.515-5.969-3.367c-0.779-2.868,1.294-12.22,2.587-14.293c1.31-2.073,2.338-2.338,2.868-4.411
	c0.514-2.089,0.514-8.324,2.338-9.617c1.809-1.295,4.147-7.015,3.896-9.867c-0.265-2.868-2.088-4.676-2.088-4.676
	s-8.122,4.411-9.774,2.852c10.616-7.59,13.156-22.211,13.343-23.972c0.202-1.746,5.269-2.338,7.029-3.694
	c1.777-1.356,2.728-1.949,4.473-5.066c1.747-3.117,0.39-14.418,0-17.146c-0.39-2.728-3.117-4.489-4.473-7.794
	c-1.34-3.304-2.728-8.76-2.15-14.808c0.577-6.047,1.558-7.403,0-12.281c-1.56-4.864-5.254-8.76-6.625-11.877
	c-1.372-3.119-6.047-8.387-8.963-14.029c-2.914-5.642-6.811-14.995-6.811-21.229c0-6.234,4.271-10.537,8.76-20.076
	c4.489-9.539,1.745-7.404,1.745-9.741c0-2.338-2.135-3.321-4.863-7.404c-2.728-4.083-2.728-6.625-6.235-12.657
	c-3.507-6.048-7.403-14.231-9.352-17.348c-1.949-3.118-2.151-25.33-1.372-30.005c0.779-4.677,1.762-2.152,5.861-6.422
	c4.083-4.302,6.422-2.542,9.54-2.542c3.117,0,3.897,0,8.183-4.473c4.287-4.489,11.893-8.199,16.569-10.132
	c4.675-1.963,5.455-2.15,10.911-2.93c4.738-0.686,8.323-2.681,8.76-3.975c0.031,1.216,0.358,4.458,2.603,8.136
	c2.854,4.677,2.073,11.691,3.897,14.03c1.809,2.337,14.278,4.675,15.836,11.425c1.558,6.748,3.118,20.527,1.823,29.101
	c-1.293,8.573-0.779,12.469-0.779,12.469s10.911,1.56,12.47,0c1.558-1.558,7.278-5.985,9.087-5.985c1.824,0,4.941,1.044,9.103,1.559
	c4.146,0.531,13.25,1.31,16.367-0.25c3.118-1.558,9.353-9.103,12.205-9.617s10.646,2.853,16.366,11.425
	c5.72,8.572,9.353,7.544,9.618,12.735c0.249,5.19-0.265,14.028,4.675,19.483c4.926,5.456,13.249,12.735,15.058,17.411
	C320.83,320.223,329.137,335.28,319.005,349.573z"/>
<path fill="#D1F0F4" d="M290.435,669.623h-10.397c0,0-11.939-7.015-15.321-10.381c-3.384-3.383-5.722-3.647-8.059-4.677
	c-2.338-1.044-12.205-7.014-14.278-8.572c-2.087-1.56-10.662-4.427-11.955-8.324c-1.294-3.896-2.853-5.704-3.897-5.97
	c-1.044-0.266-9.352-6.234-9.866-7.528c-0.529-1.31-0.529-3.896-0.529-5.455s-1.56-5.985-2.073-8.838
	c-0.514-2.853-2.603-4.677-3.898-7.015c-1.293-2.337-3.631-6.749-4.675-12.47c-2.338-7.015-4.162-8.308-5.72-10.91
	c-1.559-2.604-3.367-3.898-4.147-6.236c-0.779-2.337,0.514-8.308-1.309-14.293c-1.808-5.97-2.854-8.572-2.073-12.719
	c-0.733-2.307-1.73-4.286-2.712-6.017c0,0,5.237,2.244,9.336,2.448c4.1,0.187,7.217,0.575,10.709,3.896
	c3.522,3.306,7.793,9.728,10.724,11.487c2.931,1.762,8.183,3.322,10.521,1.357c2.338-1.934,6.298-2.821,5.487-7.639
	c3.117,2.183,8.152,6.298,8.152,6.938c0,0.778,0.779,4.411,1.824,6.749c1.027,2.337,9.865,14.807,13.498,15.586
	c3.647,0.78,7.543,3.382,7.543,4.677c0,1.293,0.781,6.233,1.029,18.704c0.266,12.471,7.545,29.102,7.545,29.102
	s11.16,21.292,12.469,23.38C289.656,658.977,291.479,661.58,290.435,669.623"/>
<path fill="none" stroke="#FFFFFF" stroke-miterlimit="10" d="M290.435,669.623h-10.397c0,0-11.939-7.015-15.321-10.381
	c-3.384-3.383-5.722-3.647-8.059-4.677c-2.338-1.044-12.205-7.014-14.278-8.572c-2.087-1.56-10.662-4.427-11.955-8.324
	c-1.294-3.896-2.853-5.704-3.897-5.97c-1.044-0.266-9.352-6.234-9.866-7.528c-0.529-1.31-0.529-3.896-0.529-5.455
	s-1.56-5.985-2.073-8.838c-0.514-2.853-2.603-4.677-3.898-7.015c-1.293-2.337-3.631-6.749-4.675-12.47
	c-2.338-7.015-4.162-8.308-5.72-10.91c-1.559-2.604-3.367-3.898-4.147-6.236c-0.779-2.337,0.514-8.308-1.309-14.293
	c-1.808-5.97-2.854-8.572-2.073-12.719c-0.733-2.307-1.73-4.286-2.712-6.017c0,0,5.237,2.244,9.336,2.448
	c4.1,0.187,7.217,0.575,10.709,3.896c3.522,3.306,7.793,9.728,10.724,11.487c2.931,1.762,8.183,3.322,10.521,1.357
	c2.338-1.934,6.298-2.821,5.487-7.639c3.117,2.183,8.152,6.298,8.152,6.938c0,0.778,0.779,4.411,1.824,6.749
	c1.027,2.337,9.865,14.807,13.498,15.586c3.647,0.78,7.543,3.382,7.543,4.677c0,1.293,0.781,6.233,1.029,18.704
	c0.266,12.471,7.545,29.102,7.545,29.102s11.16,21.292,12.469,23.38C289.656,658.977,291.479,661.58,290.435,669.623z"/>
<path fill="#D1F0F4" d="M190.677,193.11c0.077,0.156,0.077,0.328,0,0.514C190.661,193.297,190.677,193.11,190.677,193.11"/>
<path fill="none" stroke="#FFFFFF" stroke-miterlimit="10" d="M190.677,193.11c0.077,0.156,0.077,0.328,0,0.514
	C190.661,193.297,190.677,193.11,190.677,193.11z"/>
<path fill="#D1F0F4" d="M369.664,393.295c-2.587,3.819-5.456,6.157-13.763,8.23c-8.308,2.088-13.514,2.868-16.881,8.324
	c-3.383,5.455-5.986,4.41-3.897,10.646c2.074,6.234,5.705,9.352,0.779,9.352c-4.94,0-5.456-2.338-11.955-1.558
	c-6.5,0.779-8.308-2.074-11.425,1.558c-3.117,3.631-3.382,5.455-7.015,8.058c-3.647,2.588-11.238,8.917-13.42,11.597
	c-3.071-1.169-5.783-2.338-6.141-3.475c-0.78-2.542-6.609-15.401-9.539-17.738c-2.931-2.338-3.71-5.066-6.827-6.625
	c-3.119-1.559-5.644-2.135-9.353-5.252c-3.694-3.118-5.252-4.1-7.794-8.979c-2.525-4.863-4.863-6.421-7.59-11.284
	c-0.546-0.966-0.982-1.933-1.356-2.868c4.473-6.391,3.04-10.973,2.01-12.797c-1.044-1.808-0.265-10.132,0-12.984
	c0.249-2.853,10.132-9.352,11.814-11.425c1.684-2.089,4.287-4.163,5.331-6.501c1.029-2.337,3.632-3.896,7.015-4.41
	c3.367-0.53,6.483-1.56,12.205-0.266c5.721,1.294,11.69,0.266,17.146,0.266c5.456,0,9.352,0,12.204-0.53
	c2.868-0.515,3.897,2.603,7.793,4.94c0,0,14.684,8.963,16.242,5.269c1.559-3.709,1.761-7.216,3.694-8.198
	c1.964-0.966,7.419-3.305,10.537-2.526c3.118,0.78,6.235,1.372,9.54,0.966c3.304-0.374,10.132-2.712,10.132-2.712
	c-0.389,2.136-0.389,14.995,0.062,18.378c0.453,3.367,2.791,12.718,1.497,16.616C369.415,381.261,372.267,389.477,369.664,393.295"
	/>
<path fill="none" stroke="#FFFFFF" stroke-miterlimit="10" d="M369.664,393.295c-2.587,3.819-5.456,6.157-13.763,8.23
	c-8.308,2.088-13.514,2.868-16.881,8.324c-3.383,5.455-5.986,4.41-3.897,10.646c2.074,6.234,5.705,9.352,0.779,9.352
	c-4.94,0-5.456-2.338-11.955-1.558c-6.5,0.779-8.308-2.074-11.425,1.558c-3.117,3.631-3.382,5.455-7.015,8.058
	c-3.647,2.588-11.238,8.917-13.42,11.597c-3.071-1.169-5.783-2.338-6.141-3.475c-0.78-2.542-6.609-15.401-9.539-17.738
	c-2.931-2.338-3.71-5.066-6.827-6.625c-3.119-1.559-5.644-2.135-9.353-5.252c-3.694-3.118-5.252-4.1-7.794-8.979
	c-2.525-4.863-4.863-6.421-7.59-11.284c-0.546-0.966-0.982-1.933-1.356-2.868c4.473-6.391,3.04-10.973,2.01-12.797
	c-1.044-1.808-0.265-10.132,0-12.984c0.249-2.853,10.132-9.352,11.814-11.425c1.684-2.089,4.287-4.163,5.331-6.501
	c1.029-2.337,3.632-3.896,7.015-4.41c3.367-0.53,6.483-1.56,12.205-0.266c5.721,1.294,11.69,0.266,17.146,0.266
	c5.456,0,9.352,0,12.204-0.53c2.868-0.515,3.897,2.603,7.793,4.94c0,0,14.684,8.963,16.242,5.269
	c1.559-3.709,1.761-7.216,3.694-8.198c1.964-0.966,7.419-3.305,10.537-2.526c3.118,0.78,6.235,1.372,9.54,0.966
	c3.304-0.374,10.132-2.712,10.132-2.712c-0.389,2.136-0.389,14.995,0.062,18.378c0.453,3.367,2.791,12.718,1.497,16.616
	C369.415,381.261,372.267,389.477,369.664,393.295z"/>
<path fill="#D1F0F4" d="M417.205,363.867c-0.514,7.793-3.118,29.615-4.677,35.85c-1.559,6.235-14.542,24.284-18.83,26.623
	c-4.286,2.338-12.469,4.287-14.028,5.845c-1.559,1.559-12.079,11.3-17.534,16.366c-5.456,5.067-6.236,7.405-10.521,7.405h-16.756
	c0,0-3.709,5.253-3.897,10.131c-0.188,4.879,0.779,6.812-0.967,8.775c-1.761,1.933-2.93,2.136-7.216,4.864
	c-4.286,2.728-7.015,5.065-8.184,6.234c-1.168,1.169-3.117,3.117-3.117,3.117s-0.779-16.755-2.526-20.855
	c-1.761-4.083-5.86-12.267-7.792-14.604c-1.077-1.278-5.331-2.697-9.072-4.115c2.183-2.68,9.773-9.01,13.421-11.597
	c3.631-2.604,3.896-4.426,7.014-8.059c3.117-3.631,4.926-0.779,11.426-1.558c6.5-0.779,7.014,1.558,11.955,1.558
	c4.926,0,1.293-3.117-0.779-9.352c-2.089-6.234,0.514-5.19,3.896-10.646c3.367-5.456,8.573-6.234,16.881-8.324
	c8.308-2.073,11.176-4.411,13.763-8.23c2.604-3.819-0.249-12.033,1.045-15.93c1.293-3.896-1.045-13.25-1.496-16.616
	c-0.453-3.382-0.453-16.242-0.063-18.376c0.39-2.152-0.966-5.27-2.337-10.537c-1.372-5.253-3.507-10.319-5.845-14.403
	c-2.338-4.099,0.389-10.723,0-12.469c-0.39-1.761-3.118-1.372-5.657-5.082c-2.526-3.694-8.371-6.61-9.15-9.15
	c-0.78-2.54-3.508-5.252-4.88-7.995c-1.356-2.712-4.27-3.493-6.421-5.253c-2.152-1.761-6.048-3.507-9.353-6.624
	c-3.304-3.118-1.745-3.508-3.709-8.964c-1.933-5.455-5.642-14.417-6.812-16.942c-1.168-2.542-2.727-1.761-4.676-2.152
	c-1.947-0.39-2.728-0.966-4.878-2.728c-2.136-1.761-5.907-4.021-8.761-6.624c-2.852-2.603-3.896-2.338-6.234-4.412
	c-2.338-2.089-6.235-2.868-7.014-7.278c-0.781-4.412,1.823-7.279,8.308-9.867c6.5-2.603,8.573-4.677,9.103-6.5
	c0.514-1.824-2.338-4.941-2.868-8.059c-0.514-3.119-3.632-3.119-5.191-5.455c-1.559-2.338-2.852-3.368-5.72-5.457
	c-2.853-2.072-12.984-1.293-16.367-1.293c-3.367,0-5.969-0.779-9.087-2.338c-3.118-1.558-6.235-7.793-6.749-11.628
	c-0.53-3.819-1.044-3.694-4.162-6.031c-3.117-2.338-7.403-6.111-7.403-6.111c0.576-0.779,5.456-4.286,7.996-4.286
	c2.526,0,11.099,0.187,12.471-0.779c1.356-0.967,8.946-1.747,13.046-4.676c4.099-2.931,7.216-2.526,7.996-2.526
	s12.843-0.981,16.367-2.743c3.491-1.746,12.469-10.319,13.623-10.506c1.184-0.202,4.1-1.558,5.658-0.202
	c1.559,1.356,5.253,3.694,7.591,4.287c2.337,0.591,15.213-0.966,15.992,0.39c0.78,1.356,2.915,12.267,5.05,14.807
	c2.152,2.541,8.574,8.183,12.47,10.334c3.896,2.136,16.85,7.232,16.85,7.232c-1.216,2.868-0.687,8.09-7.949,11.146
	c-9.867,4.146-17.146,2.587-17.661,5.705c-0.514,3.117-2.073,7.279-5.721,11.955c-3.631,4.676-12.984,10.396-14.028,17.661
	c-1.029,7.278-1.559,20.262,2.604,24.425c4.162,4.161,9.867,9.866,11.955,15.072c2.073,5.19,14.028,18.175,19.734,23.895
	c5.72,5.72,13.513,18.705,18.704,20.778c5.206,2.089,7.279,3.117,10.396,9.352c3.117,6.236,6.75,17.146,8.837,20.264
	C407.337,333.721,417.734,356.073,417.205,363.867"/>
<path fill="none" stroke="#FFFFFF" stroke-miterlimit="10" d="M417.205,363.867c-0.514,7.793-3.118,29.615-4.677,35.85
	c-1.559,6.235-14.542,24.284-18.83,26.623c-4.286,2.338-12.469,4.287-14.028,5.845c-1.559,1.559-12.079,11.3-17.534,16.366
	c-5.456,5.067-6.236,7.405-10.521,7.405h-16.756c0,0-3.709,5.253-3.897,10.131c-0.188,4.879,0.779,6.812-0.967,8.775
	c-1.761,1.933-2.93,2.136-7.216,4.864c-4.286,2.728-7.015,5.065-8.184,6.234c-1.168,1.169-3.117,3.117-3.117,3.117
	s-0.779-16.755-2.526-20.855c-1.761-4.083-5.86-12.267-7.792-14.604c-1.077-1.278-5.331-2.697-9.072-4.115
	c2.183-2.68,9.773-9.01,13.421-11.597c3.631-2.604,3.896-4.426,7.014-8.059c3.117-3.631,4.926-0.779,11.426-1.558
	c6.5-0.779,7.014,1.558,11.955,1.558c4.926,0,1.293-3.117-0.779-9.352c-2.089-6.234,0.514-5.19,3.896-10.646
	c3.367-5.456,8.573-6.234,16.881-8.324c8.308-2.073,11.176-4.411,13.763-8.23c2.604-3.819-0.249-12.033,1.045-15.93
	c1.293-3.896-1.045-13.25-1.496-16.616c-0.453-3.382-0.453-16.242-0.063-18.376c0.39-2.152-0.966-5.27-2.337-10.537
	c-1.372-5.253-3.507-10.319-5.845-14.403c-2.338-4.099,0.389-10.723,0-12.469c-0.39-1.761-3.118-1.372-5.657-5.082
	c-2.526-3.694-8.371-6.61-9.15-9.15c-0.78-2.54-3.508-5.252-4.88-7.995c-1.356-2.712-4.27-3.493-6.421-5.253
	c-2.152-1.761-6.048-3.507-9.353-6.624c-3.304-3.118-1.745-3.508-3.709-8.964c-1.933-5.455-5.642-14.417-6.812-16.942
	c-1.168-2.542-2.727-1.761-4.676-2.152c-1.947-0.39-2.728-0.966-4.878-2.728c-2.136-1.761-5.907-4.021-8.761-6.624
	c-2.852-2.603-3.896-2.338-6.234-4.412c-2.338-2.089-6.235-2.868-7.014-7.278c-0.781-4.412,1.823-7.279,8.308-9.867
	c6.5-2.603,8.573-4.677,9.103-6.5c0.514-1.824-2.338-4.941-2.868-8.059c-0.514-3.119-3.632-3.119-5.191-5.455
	c-1.559-2.338-2.852-3.368-5.72-5.457c-2.853-2.072-12.984-1.293-16.367-1.293c-3.367,0-5.969-0.779-9.087-2.338
	c-3.118-1.558-6.235-7.793-6.749-11.628c-0.53-3.819-1.044-3.694-4.162-6.031c-3.117-2.338-7.403-6.111-7.403-6.111
	c0.576-0.779,5.456-4.286,7.996-4.286c2.526,0,11.099,0.187,12.471-0.779c1.356-0.967,8.946-1.747,13.046-4.676
	c4.099-2.931,7.216-2.526,7.996-2.526s12.843-0.981,16.367-2.743c3.491-1.746,12.469-10.319,13.623-10.506
	c1.184-0.202,4.1-1.558,5.658-0.202c1.559,1.356,5.253,3.694,7.591,4.287c2.337,0.591,15.213-0.966,15.992,0.39
	c0.78,1.356,2.915,12.267,5.05,14.807c2.152,2.541,8.574,8.183,12.47,10.334c3.896,2.136,16.85,7.232,16.85,7.232
	c-1.216,2.868-0.687,8.09-7.949,11.146c-9.867,4.146-17.146,2.587-17.661,5.705c-0.514,3.117-2.073,7.279-5.721,11.955
	c-3.631,4.676-12.984,10.396-14.028,17.661c-1.029,7.278-1.559,20.262,2.604,24.425c4.162,4.161,9.867,9.866,11.955,15.072
	c2.073,5.19,14.028,18.175,19.734,23.895c5.72,5.72,13.513,18.705,18.704,20.778c5.206,2.089,7.279,3.117,10.396,9.352
	c3.117,6.236,6.75,17.146,8.837,20.264C407.337,333.721,417.734,356.073,417.205,363.867z"/>
<line fill="#D1F0F4" x1="203.021" y1="171.163" x2="203.006" y2="171.179"/>
<line fill="none" stroke="#FFFFFF" stroke-miterlimit="10" x1="203.021" y1="171.163" x2="203.006" y2="171.179"/>
<path fill="#D1F0F4" d="M243.486,393.279c-0.016,0-0.016,0.016-0.016,0.016"/>
<path fill="none" stroke="#FFFFFF" stroke-miterlimit="10" d="M243.486,393.279c-0.016,0-0.016,0.016-0.016,0.016"/>
<path fill="#D1F0F4" d="M369.149,342.372c0,0-6.828,2.338-10.132,2.712c-3.304,0.405-6.422-0.187-9.54-0.967
	c-3.118-0.779-8.573,1.56-10.537,2.526c-1.932,0.982-2.135,4.489-3.693,8.199c-1.559,3.694-16.242-5.269-16.242-5.269
	c10.131-14.294,1.823-29.352,0-34.026c-1.808-4.676-10.131-11.956-15.057-17.412c-4.942-5.455-4.428-14.293-4.677-19.483
	c-0.265-5.19-3.896-4.163-9.616-12.735c-5.721-8.572-13.514-11.939-16.367-11.425s-9.088,8.058-12.205,9.618
	c-3.118,1.559-12.22,0.779-16.367,0.25c-4.161-0.514-7.279-1.56-9.103-1.56c-1.809,0-7.529,4.427-9.088,5.985
	c-1.558,1.56-12.469,0-12.469,0s-0.516-3.896,0.779-12.469c1.294-8.573-0.265-22.353-1.824-29.101
	c-1.558-6.75-14.028-9.087-15.836-11.425c-1.823-2.338-1.044-9.353-3.896-14.028c-2.245-3.678-2.572-6.921-2.603-8.137
	c0.078-0.187,0.078-0.358,0-0.514c-0.593-1.154-0.593-5.829,0-10.318c0.592-4.489,2.525-1.372,6.048-2.728
	c3.491-1.356,1.933-1.559,3.491-4.879c1.465-3.102,2.65-3.928,2.791-4.006c3.788,0.748,9.992,0.624,15.135-1.044
	c6.64-2.151,9.757-6.437,10.911-7.419c1.185-0.966,3.523-3.693,7.014-3.693c3.524,0,6.641,0.779,7.218,0
	c0,0,4.286,3.771,7.403,6.109c3.117,2.338,3.632,2.213,4.162,6.033c0.514,3.834,3.631,10.069,6.749,11.628
	c3.117,1.558,5.72,2.337,9.087,2.337c3.382,0,13.514-0.779,16.367,1.294c2.868,2.089,4.161,3.117,5.72,5.456
	c1.558,2.338,4.677,2.338,5.191,5.456c0.529,3.117,3.382,6.234,2.868,8.059c-0.53,1.824-2.603,3.896-9.104,6.499
	c-6.484,2.588-9.086,5.456-8.308,9.867c0.78,4.412,4.676,5.19,7.015,7.28c2.338,2.072,3.382,1.807,6.234,4.41
	c2.853,2.603,6.625,4.864,8.761,6.625c2.15,1.762,2.931,2.338,4.878,2.728c1.949,0.39,3.508-0.39,4.676,2.151
	c1.169,2.525,4.879,11.488,6.812,16.943c1.964,5.456,0.405,5.845,3.709,8.963c3.305,3.117,7.201,4.864,9.352,6.625
	c2.152,1.761,5.066,2.541,6.422,5.252c1.372,2.743,4.1,5.455,4.88,7.997c0.779,2.54,6.624,5.456,9.148,9.148
	c2.542,3.71,5.269,3.321,5.659,5.082c0.389,1.746-2.338,8.371,0,12.47c2.338,4.084,4.473,9.149,5.845,14.402
	C368.182,337.104,369.539,340.221,369.149,342.372"/>
<path fill="none" stroke="#FFFFFF" stroke-miterlimit="10" d="M369.149,342.372c0,0-6.828,2.338-10.132,2.712
	c-3.304,0.405-6.422-0.187-9.54-0.967c-3.118-0.779-8.573,1.56-10.537,2.526c-1.932,0.982-2.135,4.489-3.693,8.199
	c-1.559,3.694-16.242-5.269-16.242-5.269c10.131-14.294,1.823-29.352,0-34.026c-1.808-4.676-10.131-11.956-15.057-17.412
	c-4.942-5.455-4.428-14.293-4.677-19.483c-0.265-5.19-3.896-4.163-9.616-12.735c-5.721-8.572-13.514-11.939-16.367-11.425
	s-9.088,8.058-12.205,9.618c-3.118,1.559-12.22,0.779-16.367,0.25c-4.161-0.514-7.279-1.56-9.103-1.56
	c-1.809,0-7.529,4.427-9.088,5.985c-1.558,1.56-12.469,0-12.469,0s-0.516-3.896,0.779-12.469c1.294-8.573-0.265-22.353-1.824-29.101
	c-1.558-6.75-14.028-9.087-15.836-11.425c-1.823-2.338-1.044-9.353-3.896-14.028c-2.245-3.678-2.572-6.921-2.603-8.137
	c0.078-0.187,0.078-0.358,0-0.514c-0.593-1.154-0.593-5.829,0-10.318c0.592-4.489,2.525-1.372,6.048-2.728
	c3.491-1.356,1.933-1.559,3.491-4.879c1.465-3.102,2.65-3.928,2.791-4.006c3.788,0.748,9.992,0.624,15.135-1.044
	c6.64-2.151,9.757-6.437,10.911-7.419c1.185-0.966,3.523-3.693,7.014-3.693c3.524,0,6.641,0.779,7.218,0
	c0,0,4.286,3.771,7.403,6.109c3.117,2.338,3.632,2.213,4.162,6.033c0.514,3.834,3.631,10.069,6.749,11.628
	c3.117,1.558,5.72,2.337,9.087,2.337c3.382,0,13.514-0.779,16.367,1.294c2.868,2.089,4.161,3.117,5.72,5.456
	c1.558,2.338,4.677,2.338,5.191,5.456c0.529,3.117,3.382,6.234,2.868,8.059c-0.53,1.824-2.603,3.896-9.104,6.499
	c-6.484,2.588-9.086,5.456-8.308,9.867c0.78,4.412,4.676,5.19,7.015,7.28c2.338,2.072,3.382,1.807,6.234,4.41
	c2.853,2.603,6.625,4.864,8.761,6.625c2.15,1.762,2.931,2.338,4.878,2.728c1.949,0.39,3.508-0.39,4.676,2.151
	c1.169,2.525,4.879,11.488,6.812,16.943c1.964,5.456,0.405,5.845,3.709,8.963c3.305,3.117,7.201,4.864,9.352,6.625
	c2.152,1.761,5.066,2.541,6.422,5.252c1.372,2.743,4.1,5.455,4.88,7.997c0.779,2.54,6.624,5.456,9.148,9.148
	c2.542,3.71,5.269,3.321,5.659,5.082c0.389,1.746-2.338,8.371,0,12.47c2.338,4.084,4.473,9.149,5.845,14.402
	C368.182,337.104,369.539,340.221,369.149,342.372z"/>
<path fill="#D1F0F4" d="M402.662,232.93c0,0-3.118-16.107,2.078-17.145c5.196-1.04,24.42-5.716,33.772-5.716
	c9.353,0,21.302-0.52,21.302,3.117c0,3.637,2.08,6.755,0,12.99c-2.078,6.235-1.038,6.754-6.234,10.911
	c-5.195,4.157-20.267,4.677-22.343,9.872c-2.076,5.196-3.115,11.95-10.39,12.47c-7.273,0.52-19.744-1.04-21.822-5.716
	C396.946,249.037,396.946,237.606,402.662,232.93"/>
<path fill="none" stroke="#FFFFFF" stroke-miterlimit="10" d="M402.662,232.93c0,0-3.118-16.107,2.078-17.145
	c5.196-1.04,24.42-5.716,33.772-5.716c9.353,0,21.302-0.52,21.302,3.117c0,3.637,2.08,6.755,0,12.99
	c-2.078,6.235-1.038,6.754-6.234,10.911c-5.195,4.157-20.267,4.677-22.343,9.872c-2.076,5.196-3.115,11.95-10.39,12.47
	c-7.273,0.52-19.744-1.04-21.822-5.716C396.946,249.037,396.946,237.606,402.662,232.93z"/>
<path fill="#D1F0F4" d="M697.259,154.995c0,0-7.275-5.715-9.354-9.872c-2.078-4.157-5.715-8.833-5.715-16.627
	c0-7.794,12.469-23.899,12.469-28.576c0-4.676,7.795-9.352,11.432-11.95c3.637-2.598,17.145-9.352,20.264-6.754
	c3.115,2.598,2.883,1.039,4.039,5.716c1.156,4.675,2.48,4.675,0,13.508c-2.48,8.833-5.6,7.794-7.158,14.548
	c-1.559,6.754-4.156,8.314-7.273,17.146c-3.117,8.833-3.906,27.538-8.967,27.538S697.259,154.995,697.259,154.995"/>
<path fill="none" stroke="#FFFFFF" stroke-miterlimit="10" d="M697.259,154.995c0,0-7.275-5.715-9.354-9.872
	c-2.078-4.157-5.715-8.833-5.715-16.627c0-7.794,12.469-23.899,12.469-28.576c0-4.676,7.795-9.352,11.432-11.95
	c3.637-2.598,17.145-9.352,20.264-6.754c3.115,2.598,2.883,1.039,4.039,5.716c1.156,4.675,2.48,4.675,0,13.508
	c-2.48,8.833-5.6,7.794-7.158,14.548c-1.559,6.754-4.156,8.314-7.273,17.146c-3.117,8.833-3.906,27.538-8.967,27.538
	S697.259,154.995,697.259,154.995z"/>
<path fill="#D1F0F4" d="M675.261,302.505c0,0,7.259,3.63,10.082-4.034c2.824-7.662,6.051-17.341,6.051-20.972
	c0-3.629-0.807-13.711,0-19.762c0.807-6.049,3.629-19.762,8.469-20.165s11.697-0.403,14.115,2.823
	c2.42,3.226,12.1,2.016,13.713,2.016s10.082-1.613,10.486,4.033c0.404,5.646-1.209,8.47,0,14.923
	c1.209,6.452,3.227,12.502,3.227,16.536c0,4.032-2.42,14.518-5.242,18.552c-2.824,4.033-16.133,14.519-17.344,17.745
	c-1.209,3.228-1.611,4.033-1.611,9.276c0,5.244,9.947,23.258,9.68,29.441c-1.346,2.957-4.572,2.419-6.723,2.151
	c-2.152-0.269-9.143,0.709-12.906,0.22c-3.766-0.489-11.293-2.103-11.561-3.446c-0.27-1.345,7.795,0.269,8.064-4.033
	c0.27-4.302,0-9.948-3.227-9.948s-10.755,2.689-12.367,1.076c-1.613-1.615-3.227-6.723-5.108-10.487s-3.496-7.529-4.034-11.292
	C678.487,313.394,675.261,302.505,675.261,302.505"/>
<path fill="none" stroke="#FFFFFF" stroke-miterlimit="10" d="M675.261,302.505c0,0,7.259,3.63,10.082-4.034
	c2.824-7.662,6.051-17.341,6.051-20.972c0-3.629-0.807-13.711,0-19.762c0.807-6.049,3.629-19.762,8.469-20.165
	s11.697-0.403,14.115,2.823c2.42,3.226,12.1,2.016,13.713,2.016s10.082-1.613,10.486,4.033c0.404,5.646-1.209,8.47,0,14.923
	c1.209,6.452,3.227,12.502,3.227,16.536c0,4.032-2.42,14.518-5.242,18.552c-2.824,4.033-16.133,14.519-17.344,17.745
	c-1.209,3.228-1.611,4.033-1.611,9.276c0,5.244,9.947,23.258,9.68,29.441c-1.346,2.957-4.572,2.419-6.723,2.151
	c-2.152-0.269-9.143,0.709-12.906,0.22c-3.766-0.489-11.293-2.103-11.561-3.446c-0.27-1.345,7.795,0.269,8.064-4.033
	c0.27-4.302,0-9.948-3.227-9.948s-10.755,2.689-12.367,1.076c-1.613-1.615-3.227-6.723-5.108-10.487s-3.496-7.529-4.034-11.292
	C678.487,313.394,675.261,302.505,675.261,302.505z"/>
<path fill="#D1F0F4" d="M690.856,366.362c0,0,4.033,4.571,5.914,5.916c1.881,1.343,7.527,2.688,8.873,3.226
	c1.344,0.538,8.334,4.571,8.605,8.066c0.266,3.495,2.955,9.948-1.078,13.444c-4.031,3.494-4.301,4.033-6.721,3.226
	c-2.42-0.808-2.42-3.496-5.109-7.26c-2.689-3.765-4.031-7.2-7.258-9.516c-3.227-2.315-4.572-4.197-4.572-6.618
	C689.511,374.428,690.856,366.362,690.856,366.362"/>
<path fill="none" stroke="#FFFFFF" stroke-miterlimit="10" d="M690.856,366.362c0,0,4.033,4.571,5.914,5.916
	c1.881,1.343,7.527,2.688,8.873,3.226c1.344,0.538,8.334,4.571,8.605,8.066c0.266,3.495,2.955,9.948-1.078,13.444
	c-4.031,3.494-4.301,4.033-6.721,3.226c-2.42-0.808-2.42-3.496-5.109-7.26c-2.689-3.765-4.031-7.2-7.258-9.516
	c-3.227-2.315-4.572-4.197-4.572-6.618C689.511,374.428,690.856,366.362,690.856,366.362z"/>
<path fill="#D1F0F4" d="M738.782,370.462h8.469c0,0,4.639,7.461,3.428,8.066c-1.209,0.605-3.832-3.227-5.848-4.033
	C742.815,373.688,738.782,370.462,738.782,370.462"/>
<path fill="none" stroke="#FFFFFF" stroke-miterlimit="10" d="M738.782,370.462h8.469c0,0,4.639,7.461,3.428,8.066
	c-1.209,0.605-3.832-3.227-5.848-4.033C742.815,373.688,738.782,370.462,738.782,370.462z"/>
<path fill="#D1F0F4" d="M749.065,353.725c0,0,6.857,0.382,8.672,1.703c1.814,1.323,5.445,2.733,9.074,4.75
	c3.629,2.017,5.244,3.227,7.461,4.033c2.219,0.807,4.438,0.404,5.041,3.025c0.605,2.621,2.42,11.624-1.613,11.358
	c-4.033-0.268-5.645-3.428-7.662-4.066s-4.914-0.638-5.381-3.259c-0.469-2.621,0.34-2.35-2.281-5.107
	c-2.621-2.757-2.018-4.975-4.438-5.177c-2.42-0.203-3.227-1.21-4.234-2.016C752.696,358.161,749.065,353.725,749.065,353.725"/>
<path fill="none" stroke="#FFFFFF" stroke-miterlimit="10" d="M749.065,353.725c0,0,6.857,0.382,8.672,1.703
	c1.814,1.323,5.445,2.733,9.074,4.75c3.629,2.017,5.244,3.227,7.461,4.033c2.219,0.807,4.438,0.404,5.041,3.025
	c0.605,2.621,2.42,11.624-1.613,11.358c-4.033-0.268-5.645-3.428-7.662-4.066s-4.914-0.638-5.381-3.259
	c-0.469-2.621,0.34-2.35-2.281-5.107c-2.621-2.757-2.018-4.975-4.438-5.177c-2.42-0.203-3.227-1.21-4.234-2.016
	C752.696,358.161,749.065,353.725,749.065,353.725z"/>
<path fill="#D1F0F4" d="M793.026,393.45h22.184c0,0,1.209,2.823,2.418,8.47c1.211,5.646,0.807,4.436,2.621,8.671
	c1.816,4.234,3.631,6.654,4.438,9.478c0.805,2.823,0,4.033,0,4.033s-3.832-5.243-5.443-6.051c-1.615-0.806-3.025-1.208-8.27-4.838
	c-5.244-3.631-7.461-8.47-8.873-9.277c-1.412-0.806-3.227-1.494-4.436-3.369C796.456,398.694,791.815,398.089,793.026,393.45"/>
<path fill="none" stroke="#FFFFFF" stroke-miterlimit="10" d="M793.026,393.45h22.184c0,0,1.209,2.823,2.418,8.47
	c1.211,5.646,0.807,4.436,2.621,8.671c1.816,4.234,3.631,6.654,4.438,9.478c0.805,2.823,0,4.033,0,4.033s-3.832-5.243-5.443-6.051
	c-1.615-0.806-3.025-1.208-8.27-4.838c-5.244-3.631-7.461-8.47-8.873-9.277c-1.412-0.806-3.227-1.494-4.436-3.369
	C796.456,398.694,791.815,398.089,793.026,393.45z"/>
<path fill="#D1F0F4" d="M769.231,398.29c0,0,1.814,1.53,2.824,2.278c1.006,0.748,2.42,3.167,3.83,3.771
	c1.412,0.605,6.051,3.025,6.25,4.436c0.203,1.412-1.209,2.623-3.428,1.815c-2.217-0.806-3.627,0-5.846-3.832
	C770.644,402.928,768.224,401.92,769.231,398.29"/>
<path fill="none" stroke="#FFFFFF" stroke-miterlimit="10" d="M769.231,398.29c0,0,1.814,1.53,2.824,2.278
	c1.006,0.748,2.42,3.167,3.83,3.771c1.412,0.605,6.051,3.025,6.25,4.436c0.203,1.412-1.209,2.623-3.428,1.815
	c-2.217-0.806-3.627,0-5.846-3.832C770.644,402.928,768.224,401.92,769.231,398.29z"/>
<path fill="#D1F0F4" d="M735.151,411.801v22.787c0,0-0.807,3.428-1.611,4.839c-0.807,1.412-3.227,5.646-2.018,6.654
	c1.211,1.007,7.865,2.622,9.881,1.007c2.016-1.612,6.25-3.023,7.662-7.459c1.412-4.437,1.211-5.042,1.816-7.664
	c0.604-2.621,0.402-5.646,1.008-7.864c0.604-2.218,1.613-5.242,1.613-5.242s-1.414-0.808-2.621-1.815
	c-1.211-1.009-0.807-2.218-4.438-3.025C742.813,413.213,739.185,412.003,735.151,411.801"/>
<path fill="none" stroke="#FFFFFF" stroke-miterlimit="10" d="M735.151,411.801v22.787c0,0-0.807,3.428-1.611,4.839
	c-0.807,1.412-3.227,5.646-2.018,6.654c1.211,1.007,7.865,2.622,9.881,1.007c2.016-1.612,6.25-3.023,7.662-7.459
	c1.412-4.437,1.211-5.042,1.816-7.664c0.604-2.621,0.402-5.646,1.008-7.864c0.604-2.218,1.613-5.242,1.613-5.242
	s-1.414-0.808-2.621-1.815c-1.211-1.009-0.807-2.218-4.438-3.025C742.813,413.213,739.185,412.003,735.151,411.801z"/>
<path fill="#D1F0F4" d="M763.585,451.325c0,0-1.209,3.631-6.654,6.049c-5.445,2.42-10.283,6.251-10.688,8.269
	c-0.404,2.016,1.211,4.84,3.629,6.452c2.42,1.614,4.375,3.428,5.012,4.437c0.635,1.01,3.055,2.017,5.676,0
	c2.623-2.016,1.412-5.242,1.816-7.058c0.402-1.815,2.42-4.84,2.621-6.855C765.198,460.601,763.585,451.325,763.585,451.325"/>
<path fill="none" stroke="#FFFFFF" stroke-miterlimit="10" d="M763.585,451.325c0,0-1.209,3.631-6.654,6.049
	c-5.445,2.42-10.283,6.251-10.688,8.269c-0.404,2.016,1.211,4.84,3.629,6.452c2.42,1.614,4.375,3.428,5.012,4.437
	c0.635,1.01,3.055,2.017,5.676,0c2.623-2.016,1.412-5.242,1.816-7.058c0.402-1.815,2.42-4.84,2.621-6.855
	C765.198,460.601,763.585,451.325,763.585,451.325z"/>
<path fill="#D1F0F4" d="M782.157,428.875c0,0,5.088-0.135,6.299,2.823s2.15,6.318,1.613,9.814c-0.537,3.495-2.959,6.263-2.959,6.263
	s-1.035-4.382-0.922-8.548c0.117-4.168-0.557-7.529-1.766-8.201C783.214,430.353,782.157,428.875,782.157,428.875"/>
<path fill="none" stroke="#FFFFFF" stroke-miterlimit="10" d="M782.157,428.875c0,0,5.088-0.135,6.299,2.823s2.15,6.318,1.613,9.814
	c-0.537,3.495-2.959,6.263-2.959,6.263s-1.035-4.382-0.922-8.548c0.117-4.168-0.557-7.529-1.766-8.201
	C783.214,430.353,782.157,428.875,782.157,428.875z"/>
<path fill="#D1F0F4" d="M680.37,426.857c0,0-3.227,4.649-2.958,11.467c0.27,6.817,5.378,9.506,4.302,11.387
	c-1.074,1.882,0.27,2.689-6.453,3.496s-14.52,2.419-16.402,4.57c-1.882,2.15-4.838,6.722-6.721,9.412
	c-1.883,2.688-3.496,5.107-5.915,8.334c-2.42,3.226-6.991,3.763-8.336,5.914c-1.344,2.151-3.226,1.614-6.452,6.183
	c-3.227,4.571-4.841,4.842-5.378,6.723c-0.539,1.882-4.033,4.841-6.184,6.453c-2.15,1.613-3.496,0.807-6.99,4.302
	c-3.495,3.496-7.26,8.067-7.798,5.108c-0.538-2.957,2.153-4.302,3.227-6.989c1.077-2.69,0.269-6.454,2.151-8.067
	c1.883-1.612,6.452-5.108,9.142-8.066c2.688-2.956,2.957-2.419,5.377-4.839c2.421-2.419,7.259-8.334,9.142-9.141
	c1.883-0.807,6.185-3.227,6.722-5.377c0.539-2.152,7.259-12.1,8.873-13.176c1.612-1.075,5.646-1.612,6.184-3.226
	c0.537-1.614,8.874-13.444,9.68-18.014c0.807-4.57,3.228-9.546,4.303-9.208c1.075,0.335,3.226-0.202,3.495-1.546
	C673.647,421.211,680.64,419.598,680.37,426.857"/>
<path fill="none" stroke="#FFFFFF" stroke-miterlimit="10" d="M680.37,426.857c0,0-3.227,4.649-2.958,11.467
	c0.27,6.817,5.378,9.506,4.302,11.387c-1.074,1.882,0.27,2.689-6.453,3.496s-14.52,2.419-16.402,4.57
	c-1.882,2.15-4.838,6.722-6.721,9.412c-1.883,2.688-3.496,5.107-5.915,8.334c-2.42,3.226-6.991,3.763-8.336,5.914
	c-1.344,2.151-3.226,1.614-6.452,6.183c-3.227,4.571-4.841,4.842-5.378,6.723c-0.539,1.882-4.033,4.841-6.184,6.453
	c-2.15,1.613-3.496,0.807-6.99,4.302c-3.495,3.496-7.26,8.067-7.798,5.108c-0.538-2.957,2.153-4.302,3.227-6.989
	c1.077-2.69,0.269-6.454,2.151-8.067c1.883-1.612,6.452-5.108,9.142-8.066c2.688-2.956,2.957-2.419,5.377-4.839
	c2.421-2.419,7.259-8.334,9.142-9.141c1.883-0.807,6.185-3.227,6.722-5.377c0.539-2.152,7.259-12.1,8.873-13.176
	c1.612-1.075,5.646-1.612,6.184-3.226c0.537-1.614,8.874-13.444,9.68-18.014c0.807-4.57,3.228-9.546,4.303-9.208
	c1.075,0.335,3.226-0.202,3.495-1.546C673.647,421.211,680.64,419.598,680.37,426.857z"/>
<path fill="#D1F0F4" d="M731.351,525.859c0,0,3.764-5.916,3.764-10.218c0-4.3,1.883-13.979,1.883-13.979s14.518-9.949,29.307-2.959
	c-1.613,4.034-3.227,3.784-3.227,9.287c0,5.502,2.588,11.147-1.127,13.029c-3.713,1.883-0.756-1.613-8.016-1.076
	c-7.26,0.539-13.439-0.268-14.65,1.615C738.071,523.439,732.694,523.439,731.351,525.859"/>
<path fill="none" stroke="#FFFFFF" stroke-miterlimit="10" d="M731.351,525.859c0,0,3.764-5.916,3.764-10.218
	c0-4.3,1.883-13.979,1.883-13.979s14.518-9.949,29.307-2.959c-1.613,4.034-3.227,3.784-3.227,9.287
	c0,5.502,2.588,11.147-1.127,13.029c-3.713,1.883-0.756-1.613-8.016-1.076c-7.26,0.539-13.439-0.268-14.65,1.615
	C738.071,523.439,732.694,523.439,731.351,525.859z"/>
<path fill="#D1F0F4" d="M803.917,481.708h8.268c0,0,5.443-2.621,5.846-6.857c0.404-4.233,0-11.292,0-11.292s4.641-1.21,5.646,0
	c1.01,1.21,5.85,3.831,8.068,4.437c2.217,0.605,5.443,3.293,6.25,4.369c0.807,1.076,3.025,3.092,1.814,6.923
	c-1.209,3.833-1.814,5.646-1.814,7.664c0,2.016-0.807,9.274,1.008,11.695c1.816,2.42,3.43,3.428,4.639,6.252
	c1.209,2.822,2.621,1.209,2.621,6.453c0,5.242-0.807,10.015-1.209,10.753c-0.402,0.739-1.211,2.958-2.018,6.386
	c-0.807,3.429-1.611,9.479-2.822,8.873c-1.211-0.604-2.824-2.016-3.631-4.437c-0.805-2.419-0.805-4.437-2.621-6.452
	c-1.814-2.017-8.873-2.42-8.873-2.42s1.01,4.032,0,4.84c-1.008,0.807-4.031,3.024-4.031,4.032s-1.211,3.513-1.613,4.479
	c-0.404,0.966-0.809,1.57-0.809,2.78s0.203,15.729,0.203,15.729l-1.814,2.419c0,0-4.84,1.614-5.85,0
	c-1.008-1.612-3.025-4.839-3.025-4.839s-4.232-0.202-5.242-0.808c-1.008-0.605-5.646-1.814-8.268-5.443
	c-2.621-3.631-6.453-4.437-7.662-8.269c-1.211-3.832-1.412-9.478-1.412-9.478s-2.219-1.814-3.227-5.041s-2.824-3.831-2.824-5.646
	v-11.529c0,0,2.623-3.192,3.027-4.402c0.402-1.208,0.604-2.621,2.217-3.427c1.613-0.807,5.646-1.815,7.662-3.228
	c2.018-1.411,3.229-4.033,5.041-5.847C799.276,488.563,803.917,481.708,803.917,481.708"/>
<path fill="none" stroke="#FFFFFF" stroke-miterlimit="10" d="M803.917,481.708h8.268c0,0,5.443-2.621,5.846-6.857
	c0.404-4.233,0-11.292,0-11.292s4.641-1.21,5.646,0c1.01,1.21,5.85,3.831,8.068,4.437c2.217,0.605,5.443,3.293,6.25,4.369
	c0.807,1.076,3.025,3.092,1.814,6.923c-1.209,3.833-1.814,5.646-1.814,7.664c0,2.016-0.807,9.274,1.008,11.695
	c1.816,2.42,3.43,3.428,4.639,6.252c1.209,2.822,2.621,1.209,2.621,6.453c0,5.242-0.807,10.015-1.209,10.753
	c-0.402,0.739-1.211,2.958-2.018,6.386c-0.807,3.429-1.611,9.479-2.822,8.873c-1.211-0.604-2.824-2.016-3.631-4.437
	c-0.805-2.419-0.805-4.437-2.621-6.452c-1.814-2.017-8.873-2.42-8.873-2.42s1.01,4.032,0,4.84c-1.008,0.807-4.031,3.024-4.031,4.032
	s-1.211,3.513-1.613,4.479c-0.404,0.966-0.809,1.57-0.809,2.78s0.203,15.729,0.203,15.729l-1.814,2.419c0,0-4.84,1.614-5.85,0
	c-1.008-1.612-3.025-4.839-3.025-4.839s-4.232-0.202-5.242-0.808c-1.008-0.605-5.646-1.814-8.268-5.443
	c-2.621-3.631-6.453-4.437-7.662-8.269c-1.211-3.832-1.412-9.478-1.412-9.478s-2.219-1.814-3.227-5.041s-2.824-3.831-2.824-5.646
	v-11.529c0,0,2.623-3.192,3.027-4.402c0.402-1.208,0.604-2.621,2.217-3.427c1.613-0.807,5.646-1.815,7.662-3.228
	c2.018-1.411,3.229-4.033,5.041-5.847C799.276,488.563,803.917,481.708,803.917,481.708z"/>
<path fill="#D1F0F4" d="M726.616,227.355c0,0,2.043-2.688,3.912-1.883c1.869,0.808,4.691,1.613,5.094,3.496
	c0.404,1.882,0.539,5.108-2.42,3.898C730.247,231.657,725.405,229.506,726.616,227.355"/>
<path fill="none" stroke="#FFFFFF" stroke-miterlimit="10" d="M726.616,227.355c0,0,2.043-2.688,3.912-1.883
	c1.869,0.808,4.691,1.613,5.094,3.496c0.404,1.882,0.539,5.108-2.42,3.898C730.247,231.657,725.405,229.506,726.616,227.355z"/>
<path fill="#D1F0F4" d="M710.618,221.843c0,0,3.494-3.898,5.916-3.092c2.418,0.807,3.764,3.092,3.764,3.092s0.402,5.109-3.361,4.034
	C713.171,224.801,710.618,221.843,710.618,221.843"/>
<path fill="none" stroke="#FFFFFF" stroke-miterlimit="10" d="M710.618,221.843c0,0,3.494-3.898,5.916-3.092
	c2.418,0.807,3.764,3.092,3.764,3.092s0.402,5.109-3.361,4.034C713.171,224.801,710.618,221.843,710.618,221.843z"/>
<path fill="#D1F0F4" d="M656.466,679.754c-0.779,1.824-1.809,2.604-9.352,2.338c-7.529-0.248-9.867,0.531-12.205,2.604
	c-2.338,2.073-4.942,3.632-7.015,12.47c-2.073,8.839-0.78,14.029-2.853,20.529c-2.088,6.482-3.118,10.646-5.207,12.204
	c-2.072,1.559-12.204,4.411-15.836,8.838c-3.647,4.411-9.617,7.528-9.881,10.131c-0.25,2.587-0.25,14.543-1.294,19.22
	c-1.045,4.676-0.514,8.838-1.558,12.983c-1.045,4.163-1.824,11.441-3.633,14.294c-1.823,2.853-4.162,3.382-7.793,3.632
	c-3.648,0.264-6.5,1.559-7.793,2.603c-1.31,1.044-5.985,2.604-11.176,2.853c-5.19,0.265-11.957,1.044-13.514,0
	c-1.56-1.028-4.412-5.97-7.265-9.352c-2.868-3.367-2.088-4.412-4.426-4.412c-2.337,0-13.499,1.824-14.028,0.779
	c-0.514-1.043-3.118-6.499-4.413-6.748c-1.292-0.266-4.16-0.78-7.792-0.78c-3.633,0-4.411,1.809-7.529,2.587
	c-3.118,0.78-6.766,2.09-9.882,2.09c-3.118,0-5.97-0.266-7.529-1.31c-1.559-1.029-2.337-1.809-3.118-3.896
	c-0.78-2.073,0.265-3.367-2.853-2.073s-2.604,2.337-5.72,2.853c-3.117,0.53-10.132,1.045-14.808,1.045
	c-4.676,0-10.131,0.264-12.469-0.78s-8.06-5.455-7.28-9.353c0.78-3.896,1.418-7.528-0.062-9.352
	c-1.497-1.824-4.614-5.972-5.909-7.28c-1.292-1.292-2.073-7.528-2.073-9.352c0-1.808,1.559-9.867,0-11.161
	c-1.558-1.309-4.941-5.721-8.059-6.765c-3.118-1.028-8.837-4.676-10.396-7.264c-1.559-2.604-1.293-10.661-2.587-14.027
	c-1.31-3.382-3.897-5.721-4.428-8.838c-0.514-3.118,0-10.646,0-11.957c0-1.292,3.118-4.145,3.647-5.454
	c0.515-1.294,1.294-4.676,2.074-6.75c0.778-2.072,1.293-5.969,3.117-7.278c1.824-1.294,3.118-0.873,4.162-4.209
	c1.028-3.32,2.588-9.29,4.675-9.819c2.074-0.515,11.691-1.809,14.809,0.779c3.118,2.603,4.925,3.383,6.748,5.206
	c1.824,1.808,3.119,3.787,5.456,3.834c2.338,0.063,4.162-2.12,6.5,0c2.338,2.136,4.676,4.988,6.748,4.209
	c2.073-0.779,3.118-1.808,3.118-1.808s8.963,7.402,9.477,9.477c0.53,2.073,5.845,1.824,7.28,0.778
	c1.434-1.044,3.772-2.587,5.97-4.738c2.213-2.15,4.676-5.517,8.961-5.517c4.287,0,7.669,0.389,10.662,1.808
	c2.978,1.434,15.058,0,16.367,0c1.294,0,12.33-2.729,16.88-4.927c4.552-2.212,12.346-7.153,14.295-10.13
	c1.947-2.993,6.483-10.133,7.529-14.809c1.043-4.677,3.382-9.882,4.939-11.69c1.56-1.824,4.676-9.102,5.705-11.689
	c1.046-2.603,2.338-7.545,4.942-9.354c2.604-1.824,18.705-6.687,21.23-7.871c2.54-1.154,10.13-2.525,12.282-2.136
	c2.151,0.391,9.088-0.202,11.956,2.729c-1.044,2.854-5.206,6.749-6.5,9.353c-1.295,2.603-0.265,2.073,0.514,4.161
	c0.779,2.073,2.089,5.97,0.529,9.353c-1.559,3.367-2.603,1.559-1.559,3.367c1.029,1.824,8.823,6.5,12.205,8.572
	c3.382,2.089,6.5,3.896,6.748,7.794c0.267,3.897,0,8.572-1.028,10.131c-1.044,1.561-2.743,3.647-1.761,5.206
	c0.982,1.56,9.555,2.34,12.921,7.265c3.382,4.939,6.5,6.764,8.323,9.882C656.466,677.946,657.245,677.946,656.466,679.754"/>
<path fill="none" stroke="#FFFFFF" stroke-miterlimit="10" d="M656.466,679.754c-0.779,1.824-1.809,2.604-9.352,2.338
	c-7.529-0.248-9.867,0.531-12.205,2.604c-2.338,2.073-4.942,3.632-7.015,12.47c-2.073,8.839-0.78,14.029-2.853,20.529
	c-2.088,6.482-3.118,10.646-5.207,12.204c-2.072,1.559-12.204,4.411-15.836,8.838c-3.647,4.411-9.617,7.528-9.881,10.131
	c-0.25,2.587-0.25,14.543-1.294,19.22c-1.045,4.676-0.514,8.838-1.558,12.983c-1.045,4.163-1.824,11.441-3.633,14.294
	c-1.823,2.853-4.162,3.382-7.793,3.632c-3.648,0.264-6.5,1.559-7.793,2.603c-1.31,1.044-5.985,2.604-11.176,2.853
	c-5.19,0.265-11.957,1.044-13.514,0c-1.56-1.028-4.412-5.97-7.265-9.352c-2.868-3.367-2.088-4.412-4.426-4.412
	c-2.337,0-13.499,1.824-14.028,0.779c-0.514-1.043-3.118-6.499-4.413-6.748c-1.292-0.266-4.16-0.78-7.792-0.78
	c-3.633,0-4.411,1.809-7.529,2.587c-3.118,0.78-6.766,2.09-9.882,2.09c-3.118,0-5.97-0.266-7.529-1.31
	c-1.559-1.029-2.337-1.809-3.118-3.896c-0.78-2.073,0.265-3.367-2.853-2.073s-2.604,2.337-5.72,2.853
	c-3.117,0.53-10.132,1.045-14.808,1.045c-4.676,0-10.131,0.264-12.469-0.78s-8.06-5.455-7.28-9.353
	c0.78-3.896,1.418-7.528-0.062-9.352c-1.497-1.824-4.614-5.972-5.909-7.28c-1.292-1.292-2.073-7.528-2.073-9.352
	c0-1.808,1.559-9.867,0-11.161c-1.558-1.309-4.941-5.721-8.059-6.765c-3.118-1.028-8.837-4.676-10.396-7.264
	c-1.559-2.604-1.293-10.661-2.587-14.027c-1.31-3.382-3.897-5.721-4.428-8.838c-0.514-3.118,0-10.646,0-11.957
	c0-1.292,3.118-4.145,3.647-5.454c0.515-1.294,1.294-4.676,2.074-6.75c0.778-2.072,1.293-5.969,3.117-7.278
	c1.824-1.294,3.118-0.873,4.162-4.209c1.028-3.32,2.588-9.29,4.675-9.819c2.074-0.515,11.691-1.809,14.809,0.779
	c3.118,2.603,4.925,3.383,6.748,5.206c1.824,1.808,3.119,3.787,5.456,3.834c2.338,0.063,4.162-2.12,6.5,0
	c2.338,2.136,4.676,4.988,6.748,4.209c2.073-0.779,3.118-1.808,3.118-1.808s8.963,7.402,9.477,9.477
	c0.53,2.073,5.845,1.824,7.28,0.778c1.434-1.044,3.772-2.587,5.97-4.738c2.213-2.15,4.676-5.517,8.961-5.517
	c4.287,0,7.669,0.389,10.662,1.808c2.978,1.434,15.058,0,16.367,0c1.294,0,12.33-2.729,16.88-4.927
	c4.552-2.212,12.346-7.153,14.295-10.13c1.947-2.993,6.483-10.133,7.529-14.809c1.043-4.677,3.382-9.882,4.939-11.69
	c1.56-1.824,4.676-9.102,5.705-11.689c1.046-2.603,2.338-7.545,4.942-9.354c2.604-1.824,18.705-6.687,21.23-7.871
	c2.54-1.154,10.13-2.525,12.282-2.136c2.151,0.391,9.088-0.202,11.956,2.729c-1.044,2.854-5.206,6.749-6.5,9.353
	c-1.295,2.603-0.265,2.073,0.514,4.161c0.779,2.073,2.089,5.97,0.529,9.353c-1.559,3.367-2.603,1.559-1.559,3.367
	c1.029,1.824,8.823,6.5,12.205,8.572c3.382,2.089,6.5,3.896,6.748,7.794c0.267,3.897,0,8.572-1.028,10.131
	c-1.044,1.561-2.743,3.647-1.761,5.206c0.982,1.56,9.555,2.34,12.921,7.265c3.382,4.939,6.5,6.764,8.323,9.882
	C656.466,677.946,657.245,677.946,656.466,679.754z"/>
<path fill="#D1F0F4" d="M661.142,581.041c-2.338,1.045-8.821,2.853-12.206,3.897c-3.382,1.044-4.939,2.072-10.645,4.676
	c-5.721,2.603-8.323,8.572-11.176,9.354c-2.852,0.778-1.823-2.074-2.852,0.778c-2.869-2.931-9.805-2.339-11.956-2.728
	c-2.151-0.39-9.742,0.982-12.283,2.135c-2.526,1.186-18.627,6.048-21.229,7.872c-2.604,1.808-3.898,6.749-4.941,9.353
	c-1.03,2.587-4.147,9.866-5.705,11.689c-1.559,1.808-3.897,7.015-4.941,11.691c-1.045,4.675-5.58,11.813-7.529,14.807
	c-1.948,2.978-9.742,7.919-14.292,10.132c-4.553,2.198-15.587,4.926-16.882,4.926c-1.309,0-13.388,1.434-16.367,0
	c-2.993-1.419-6.375-1.808-10.661-1.808c-4.287,0-6.75,3.366-8.964,5.517c-2.198,2.152-4.536,3.694-5.969,4.739
	c-1.434,1.044-6.75,1.294-7.28-0.779c-0.514-2.073-9.477-9.477-9.477-9.477s0.78-19.75,0.78-23.133c0-3.366,5.72-8.043,7.794-8.572
	c2.073-0.514,5.455-2.853,8.572-3.366c3.118-0.53,8.058-3.118,11.176-3.383s5.456-1.045,9.088-3.897s2.852-2.853,3.897-5.456
	c1.043-2.602,3.897-7.277,7.279-8.836c3.367-1.56,3.632-4.146,5.456-6.75c1.808-2.603,3.118-4.676,5.19-6.5
	c2.073-1.807,2.604-4.926,4.161-5.455c1.559-0.514,5.456-3.366,7.264,0.778c1.824,4.162,3.118,4.428,4.676,4.677
	c1.558,0.265,5.205,1.046,6.765,0.265c1.559-0.779,2.338-1.043,4.412-2.604c2.073-1.558,3.381-3.63,5.72-7.527
	s2.853-7.793,2.853-10.131c0-2.339,1.56-5.456,3.118-5.722c1.559-0.249,4.941-5.704,7.28-9.867c2.338-4.161,3.117-3.63,7.264-6.233
	c4.161-2.604,4.161-3.632,5.985-7.28c1.808-3.631,2.852-4.411,4.925-5.969c2.088-1.559,1.559-5.971,4.426-8.572
	c2.853-2.604,2.587-9.042,4.677-8.418c2.073,0.623,5.455,0,5.455,0s3.118,0.623,4.926,1.917c1.823,1.31,3.117,2.603,4.425,5.985
	c1.295,3.367,1.295,9.602,3.118,12.205c1.809,2.603,5.706,7.793,8.043,8.572c2.338,0.779,7.544,2.603,11.442,2.603
	c3.896,0,4.846-1.043,7.482,0c2.648,1.029,14.589,9.867,16.928,11.69c2.338,1.809,2.338,1.56,2.338,4.412
	S663.48,579.997,661.142,581.041"/>
<path fill="none" stroke="#FFFFFF" stroke-miterlimit="10" d="M661.142,581.041c-2.338,1.045-8.821,2.853-12.206,3.897
	c-3.382,1.044-4.939,2.072-10.645,4.676c-5.721,2.603-8.323,8.572-11.176,9.354c-2.852,0.778-1.823-2.074-2.852,0.778
	c-2.869-2.931-9.805-2.339-11.956-2.728c-2.151-0.39-9.742,0.982-12.283,2.135c-2.526,1.186-18.627,6.048-21.229,7.872
	c-2.604,1.808-3.898,6.749-4.941,9.353c-1.03,2.587-4.147,9.866-5.705,11.689c-1.559,1.808-3.897,7.015-4.941,11.691
	c-1.045,4.675-5.58,11.813-7.529,14.807c-1.948,2.978-9.742,7.919-14.292,10.132c-4.553,2.198-15.587,4.926-16.882,4.926
	c-1.309,0-13.388,1.434-16.367,0c-2.993-1.419-6.375-1.808-10.661-1.808c-4.287,0-6.75,3.366-8.964,5.517
	c-2.198,2.152-4.536,3.694-5.969,4.739c-1.434,1.044-6.75,1.294-7.28-0.779c-0.514-2.073-9.477-9.477-9.477-9.477
	s0.78-19.75,0.78-23.133c0-3.366,5.72-8.043,7.794-8.572c2.073-0.514,5.455-2.853,8.572-3.366c3.118-0.53,8.058-3.118,11.176-3.383
	s5.456-1.045,9.088-3.897s2.852-2.853,3.897-5.456c1.043-2.602,3.897-7.277,7.279-8.836c3.367-1.56,3.632-4.146,5.456-6.75
	c1.808-2.603,3.118-4.676,5.19-6.5c2.073-1.807,2.604-4.926,4.161-5.455c1.559-0.514,5.456-3.366,7.264,0.778
	c1.824,4.162,3.118,4.428,4.676,4.677c1.558,0.265,5.205,1.046,6.765,0.265c1.559-0.779,2.338-1.043,4.412-2.604
	c2.073-1.558,3.381-3.63,5.72-7.527s2.853-7.793,2.853-10.131c0-2.339,1.56-5.456,3.118-5.722c1.559-0.249,4.941-5.704,7.28-9.867
	c2.338-4.161,3.117-3.63,7.264-6.233c4.161-2.604,4.161-3.632,5.985-7.28c1.808-3.631,2.852-4.411,4.925-5.969
	c2.088-1.559,1.559-5.971,4.426-8.572c2.853-2.604,2.587-9.042,4.677-8.418c2.073,0.623,5.455,0,5.455,0s3.118,0.623,4.926,1.917
	c1.823,1.31,3.117,2.603,4.425,5.985c1.295,3.367,1.295,9.602,3.118,12.205c1.809,2.603,5.706,7.793,8.043,8.572
	c2.338,0.779,7.544,2.603,11.442,2.603c3.896,0,4.846-1.043,7.482,0c2.648,1.029,14.589,9.867,16.928,11.69
	c2.338,1.809,2.338,1.56,2.338,4.412S663.48,579.997,661.142,581.041z"/>
<path fill="#D1F0F4" d="M818.058,672.818c-0.389,1.745-2.93,5.456-7.016,10.132c-4.082,4.675-11.096,13.436-15.773,17.146
	c-4.676,3.694-9.164,5.829-13.451,7.015c-4.287,1.153-15.586,2.913-18.908,1.355c-3.305-1.559-7.793-3.32-9.352-3.896
	c-1.559-0.577-25.516-0.203-25.516-0.203s-4.879-1.745-10.131-3.304c-5.252-1.561-5.457-2.339-9.557-1.561
	c-4.084,0.781-5.455,1.373-8.572,2.526c-3.117,1.185-5.455,2.93-7.793,4.879c-2.338,1.948-8.168,3.694-11.285,2.541
	c0,0-3.117-3.523-6.048-4.303c-2.93-0.779-7.794-0.576-8.184-2.524c-0.389-1.949-0.577-9.54,2.915-12.658
	c3.523-3.116,7.014-8.572,9.352-8.572s13.25-0.982,15.01-1.963c1.762-0.966,8.371-6.938,10.521-9.805
	c2.152-2.853,7.016-3.632,9.354-2.463s7.793,3.693,10.91,3.896c3.119,0.203,4.707,1.169,5.861,1.762
	c1.152,0.576,8.947,2.915,12.064,4.677c3.117,1.745,3.305,0.576,8.387,1.933c5.051,1.37,6.031,0.779,10.131,1.559
	c4.084,0.778,17.721,0.404,19.281-0.779c1.559-1.154,9.555-2.915,12.268-4.864c2.742-1.948,4.1-6.234,6.438-6.826
	c2.338-0.576,15.977-1.356,16.943-0.188C816.89,669.498,818.446,671.057,818.058,672.818"/>
<path fill="none" stroke="#FFFFFF" stroke-miterlimit="10" d="M818.058,672.818c-0.389,1.745-2.93,5.456-7.016,10.132
	c-4.082,4.675-11.096,13.436-15.773,17.146c-4.676,3.694-9.164,5.829-13.451,7.015c-4.287,1.153-15.586,2.913-18.908,1.355
	c-3.305-1.559-7.793-3.32-9.352-3.896c-1.559-0.577-25.516-0.203-25.516-0.203s-4.879-1.745-10.131-3.304
	c-5.252-1.561-5.457-2.339-9.557-1.561c-4.084,0.781-5.455,1.373-8.572,2.526c-3.117,1.185-5.455,2.93-7.793,4.879
	c-2.338,1.948-8.168,3.694-11.285,2.541c0,0-3.117-3.523-6.048-4.303c-2.93-0.779-7.794-0.576-8.184-2.524
	c-0.389-1.949-0.577-9.54,2.915-12.658c3.523-3.116,7.014-8.572,9.352-8.572s13.25-0.982,15.01-1.963
	c1.762-0.966,8.371-6.938,10.521-9.805c2.152-2.853,7.016-3.632,9.354-2.463s7.793,3.693,10.91,3.896
	c3.119,0.203,4.707,1.169,5.861,1.762c1.152,0.576,8.947,2.915,12.064,4.677c3.117,1.745,3.305,0.576,8.387,1.933
	c5.051,1.37,6.031,0.779,10.131,1.559c4.084,0.778,17.721,0.404,19.281-0.779c1.559-1.154,9.555-2.915,12.268-4.864
	c2.742-1.948,4.1-6.234,6.438-6.826c2.338-0.576,15.977-1.356,16.943-0.188C816.89,669.498,818.446,671.057,818.058,672.818z"/>
<path fill="#D1F0F4" d="M766.808,734.761c-0.375,0.779-0.188,6.64-2.137,7.218c-1.947,0.576-2.135,0-5.453,0
	c-3.32,0-7.406-0.982-8.777-0.578c-1.355,0.375-4.271,1.561-6.031,3.306c-1.762,1.745-4.879,4.287-6.813,5.065
	c-1.963,0.779-1.963,1.169-4.303,1.762c-2.338,0.576-6.031-0.203-6.031,1.933c0,2.15,2.135,1.184,3.117,2.338
	c0.982,1.185,4.676,5.533,5.33,8.775c0.641,3.243,4.678,4.94,5.316,5.331c0.654,0.391,7.016,3.367,8.838,5.846
	c1.824,2.463,4.941,3.896,4.941,5.58c0,1.683,0.389,5.845,0.514,9.087c0.125,3.258,1.434,11.44,0.654,14.293
	s-2.479,11.816-3.258,13.515c-0.779,1.684-1.947,5.704-3.242,9.742c-1.293,4.021-2.461,7.013-5.064,7.403s-6.889-0.141-6.359-3.648
	c0.514-3.507,1.682-4.8,0.514-6.873c-1.168-2.088-3.383-5.72-5.457-6.376c-2.072-0.639-3.506-0.389-5.844-0.779
	c-2.338-0.389-5.721-0.638-7.279-1.292c-1.559-0.655-4.021-4.411-4.41-7.015c-0.391-2.604-4.678-3.195-5.721-3.882
	c-1.029-0.67-7.404-4.815-8.045-6.905c-0.654-2.072-2.477-5.845-2.086-10.131c0.389-4.286-0.641-9.088-1.172-10.912
	c-0.512-1.807-1.168-2.072-1.557-1.807c-0.391,0.249-1.809,0.639-2.199,1.947c-0.389,1.295-2.338,1.949-2.338,5.581
	s-0.389,13.514-1.947,16.63c-1.559,3.119-1.823,11.303-2.604,14.544c-0.779,3.241-1.169,4.941-2.463,7.139
	c-1.31,2.213-5.205,8.185-5.986,10.396c-0.777,2.213-2.976,6.235-3.241,7.794s-1.434,4.94-2.993,5.455
	c-1.559,0.514-5.456,0.905-6.234,0c-0.78-0.903-2.588-2.993-3.117-5.331c-0.516-2.338-0.921-5.455-1.045-9.087
	c-0.125-3.632,0.264-9.478,0.529-12.08c0.266-2.604,1.045-6.11,1.17-9.086c0.125-2.993,1.168-7.546,0.125-9.229
	c-1.029-1.684-5.581-6.5-6.75-8.307c-1.168-1.824-3.631-5.067-5.331-7.935c-1.683-2.853-3.507-3.819-3.507-5.939
	c0-2.104-1.292-8.604-0.638-10.676c0.638-2.09,2.338-4.817,4.021-7.935c1.684-3.119,8.059-9.742,7.669-11.691
	c-0.391-1.946-0.266-7.793-0.141-9.352c0.141-1.559,0.655-6.874,0.655-6.874s6.75-9.616,8.447-11.565
	c1.684-1.949,2.729-2.463,3.368-4.021c0.654-1.559,1.699-3.118,2.729-3.118c1.043,0,3.57-1.433,3.57-1.433s9.352-1.949,10.91,0
	c1.559,1.947,4.301,6.623,5.861,10.521c1.559,3.896,4.676,8.961,6.234,9.165c1.559,0.187,5.252,0.575,7.014-1.762
	c1.746-2.338,5.051-4.475,7.793-5.846c2.711-1.371,4.084-1.294,6.609-2.604c2.541-1.293,3.537-0.903,7.232-1.293
	c3.678-0.39,12.656-0.967,16.352-0.188c3.693,0.78,8.182,2.339,10.131,3.305c1.949,0.967,6.813,2.15,8.572,4.488
	C767.212,729.711,767.212,733.982,766.808,734.761"/>
<path fill="none" stroke="#FFFFFF" stroke-miterlimit="10" d="M766.808,734.761c-0.375,0.779-0.188,6.64-2.137,7.218
	c-1.947,0.576-2.135,0-5.453,0c-3.32,0-7.406-0.982-8.777-0.578c-1.355,0.375-4.271,1.561-6.031,3.306
	c-1.762,1.745-4.879,4.287-6.813,5.065c-1.963,0.779-1.963,1.169-4.303,1.762c-2.338,0.576-6.031-0.203-6.031,1.933
	c0,2.15,2.135,1.184,3.117,2.338c0.982,1.185,4.676,5.533,5.33,8.775c0.641,3.243,4.678,4.94,5.316,5.331
	c0.654,0.391,7.016,3.367,8.838,5.846c1.824,2.463,4.941,3.896,4.941,5.58c0,1.683,0.389,5.845,0.514,9.087
	c0.125,3.258,1.434,11.44,0.654,14.293s-2.479,11.816-3.258,13.515c-0.779,1.684-1.947,5.704-3.242,9.742
	c-1.293,4.021-2.461,7.013-5.064,7.403s-6.889-0.141-6.359-3.648c0.514-3.507,1.682-4.8,0.514-6.873
	c-1.168-2.088-3.383-5.72-5.457-6.376c-2.072-0.639-3.506-0.389-5.844-0.779c-2.338-0.389-5.721-0.638-7.279-1.292
	c-1.559-0.655-4.021-4.411-4.41-7.015c-0.391-2.604-4.678-3.195-5.721-3.882c-1.029-0.67-7.404-4.815-8.045-6.905
	c-0.654-2.072-2.477-5.845-2.086-10.131c0.389-4.286-0.641-9.088-1.172-10.912c-0.512-1.807-1.168-2.072-1.557-1.807
	c-0.391,0.249-1.809,0.639-2.199,1.947c-0.389,1.295-2.338,1.949-2.338,5.581s-0.389,13.514-1.947,16.63
	c-1.559,3.119-1.823,11.303-2.604,14.544c-0.779,3.241-1.169,4.941-2.463,7.139c-1.31,2.213-5.205,8.185-5.986,10.396
	c-0.777,2.213-2.976,6.235-3.241,7.794s-1.434,4.94-2.993,5.455c-1.559,0.514-5.456,0.905-6.234,0
	c-0.78-0.903-2.588-2.993-3.117-5.331c-0.516-2.338-0.921-5.455-1.045-9.087c-0.125-3.632,0.264-9.478,0.529-12.08
	c0.266-2.604,1.045-6.11,1.17-9.086c0.125-2.993,1.168-7.546,0.125-9.229c-1.029-1.684-5.581-6.5-6.75-8.307
	c-1.168-1.824-3.631-5.067-5.331-7.935c-1.683-2.853-3.507-3.819-3.507-5.939c0-2.104-1.292-8.604-0.638-10.676
	c0.638-2.09,2.338-4.817,4.021-7.935c1.684-3.119,8.059-9.742,7.669-11.691c-0.391-1.946-0.266-7.793-0.141-9.352
	c0.141-1.559,0.655-6.874,0.655-6.874s6.75-9.616,8.447-11.565c1.684-1.949,2.729-2.463,3.368-4.021
	c0.654-1.559,1.699-3.118,2.729-3.118c1.043,0,3.57-1.433,3.57-1.433s9.352-1.949,10.91,0c1.559,1.947,4.301,6.623,5.861,10.521
	c1.559,3.896,4.676,8.961,6.234,9.165c1.559,0.187,5.252,0.575,7.014-1.762c1.746-2.338,5.051-4.475,7.793-5.846
	c2.711-1.371,4.084-1.294,6.609-2.604c2.541-1.293,3.537-0.903,7.232-1.293c3.678-0.39,12.656-0.967,16.352-0.188
	c3.693,0.78,8.182,2.339,10.131,3.305c1.949,0.967,6.813,2.15,8.572,4.488C767.212,729.711,767.212,733.982,766.808,734.761z"/>
<path fill="#D1F0F4" d="M793.702,740.029c0,0,12.471,0.391,15.393,1.169c2.922,0.78,4.871,1.56,7.016,1.169
	c2.143-0.389,5.455,0.209,9.547,0.104c4.09-0.104,13.053,0.013,13.053,0.013s-1.168,2.027,0,3.197
	c1.168,1.168,3.313,2.143,3.313,4.286c0,2.143-0.195,5.261-1.363,7.403c-1.17,2.144-3.701,3.507-3.898,5.65
	c-0.193,2.144-0.582,7.403-2.336,6.82c-1.754-0.585-7.6,0.09-8.768,0.045c-1.17-0.045-4.678-1.409-6.432-3.748
	c-1.752-2.337-4.09-4.871-5.65-5.065c-1.559-0.195-4.285-0.584-7.014-1.948c-2.727-1.364-5.066-3.459-7.014-4.166
	c-1.949-0.705-6.43-3.821-7.209-6.55C791.56,745.681,793.702,740.029,793.702,740.029"/>
<path fill="none" stroke="#FFFFFF" stroke-miterlimit="10" d="M793.702,740.029c0,0,12.471,0.391,15.393,1.169
	c2.922,0.78,4.871,1.56,7.016,1.169c2.143-0.389,5.455,0.209,9.547,0.104c4.09-0.104,13.053,0.013,13.053,0.013
	s-1.168,2.027,0,3.197c1.168,1.168,3.313,2.143,3.313,4.286c0,2.143-0.195,5.261-1.363,7.403c-1.17,2.144-3.701,3.507-3.898,5.65
	c-0.193,2.144-0.582,7.403-2.336,6.82c-1.754-0.585-7.6,0.09-8.768,0.045c-1.17-0.045-4.678-1.409-6.432-3.748
	c-1.752-2.337-4.09-4.871-5.65-5.065c-1.559-0.195-4.285-0.584-7.014-1.948c-2.727-1.364-5.066-3.459-7.014-4.166
	c-1.949-0.705-6.43-3.821-7.209-6.55C791.56,745.681,793.702,740.029,793.702,740.029z"/>
<path fill="#D1F0F4" d="M831.696,779.777c0,0,9.742,1.753,13.055,2.338c3.313,0.584,13.637,0.778,15.197,2.922
	c1.559,2.144,3.506,9.547,3.506,9.547s-7.014,1.949-9.352,1.364c-2.338-0.584-5.066-1.559-8.184-3.117
	c-3.117-1.558-7.793-0.67-10.717-4.913C832.28,783.673,831.696,779.777,831.696,779.777"/>
<path fill="none" stroke="#FFFFFF" stroke-miterlimit="10" d="M831.696,779.777c0,0,9.742,1.753,13.055,2.338
	c3.313,0.584,13.637,0.778,15.197,2.922c1.559,2.144,3.506,9.547,3.506,9.547s-7.014,1.949-9.352,1.364
	c-2.338-0.584-5.066-1.559-8.184-3.117c-3.117-1.558-7.793-0.67-10.717-4.913C832.28,783.673,831.696,779.777,831.696,779.777z"/>
<path fill="#D1F0F4" d="M874.95,790.299c0,0,1.949-5.846,3.506-8.38c1.561-2.532,3.313-6.039,3.313-6.039h27.082
	c0,0,0.975,0.779,2.34,0.975c1.363,0.194,14.223-0.391,17.146,0.779c2.922,1.169,6.623,1.753,9.352,4.091
	c2.727,2.339,7.598,6.235,8.961,8.574c1.365,2.338,4.678,7.208,3.898,7.986c-0.779,0.781-8.379,1.365-9.158,0.975
	c-0.779-0.389-1.754-2.898-5.064-3.202c-3.313-0.305-10.133-1.473-12.08-2.447c-1.949-0.974-6.041-3.508-7.988-2.728
	c-1.949,0.779-7.795,1.363-10.717,2.923c-2.922,1.559-3.508,5.454-9.742,4.091s-14.223-2.144-17.535-4.87L874.95,790.299z"/>
<path fill="none" stroke="#FFFFFF" stroke-miterlimit="10" d="M874.95,790.299c0,0,1.949-5.846,3.506-8.38
	c1.561-2.532,3.313-6.039,3.313-6.039h27.082c0,0,0.975,0.779,2.34,0.975c1.363,0.194,14.223-0.391,17.146,0.779
	c2.922,1.169,6.623,1.753,9.352,4.091c2.727,2.339,7.598,6.235,8.961,8.574c1.365,2.338,4.678,7.208,3.898,7.986
	c-0.779,0.781-8.379,1.365-9.158,0.975c-0.779-0.389-1.754-2.898-5.064-3.202c-3.313-0.305-10.133-1.473-12.08-2.447
	c-1.949-0.974-6.041-3.508-7.988-2.728c-1.949,0.779-7.795,1.363-10.717,2.923c-2.922,1.559-3.508,5.454-9.742,4.091
	s-14.223-2.144-17.535-4.87L874.95,790.299z"/>
<path fill="#D1F0F4" d="M885.343,700.023c0,0-2.08,2.857,0,6.233c2.076,3.378,4.414,9.613,4.676,13.249
	c0.258,3.638,0.258,9.873-1.299,10.393c-1.559,0.52-12.99,1.559-15.588,0s-6.625-3.378-9.678-5.196
	c-3.053-1.817-7.207-1.559-7.207-5.455s1.039-8.833,2.596-10.91c1.559-2.08,7.016-6.495,7.795-11.172
	c0.777-4.675,1.297-5.666,1.039-8.938c-0.262-3.271-3.637-5.351-3.637-9.507s1.039-12.21,2.598-14.548
	c1.559-2.339,5.715-8.313,10.391-11.431s7.535-7.534,8.314-4.937c0.777,2.599,2.596,4.157,0.52,8.574
	c-2.08,4.415-3.379,3.37-4.158,10.258c-0.779,6.887-1.299,10.523-0.779,13.901c0.52,3.376,1.559,5.195,2.338,5.715
	c0.779,0.521,13.77,4.676,13.77,7.535C897.032,696.646,886.259,696.893,885.343,700.023"/>
<path fill="none" stroke="#FFFFFF" stroke-miterlimit="10" d="M885.343,700.023c0,0-2.08,2.857,0,6.233
	c2.076,3.378,4.414,9.613,4.676,13.249c0.258,3.638,0.258,9.873-1.299,10.393c-1.559,0.52-12.99,1.559-15.588,0
	s-6.625-3.378-9.678-5.196c-3.053-1.817-7.207-1.559-7.207-5.455s1.039-8.833,2.596-10.91c1.559-2.08,7.016-6.495,7.795-11.172
	c0.777-4.675,1.297-5.666,1.039-8.938c-0.262-3.271-3.637-5.351-3.637-9.507s1.039-12.21,2.598-14.548
	c1.559-2.339,5.715-8.313,10.391-11.431s7.535-7.534,8.314-4.937c0.777,2.599,2.596,4.157,0.52,8.574
	c-2.08,4.415-3.379,3.37-4.158,10.258c-0.779,6.887-1.299,10.523-0.779,13.901c0.52,3.376,1.559,5.195,2.338,5.715
	c0.779,0.521,13.77,4.676,13.77,7.535C897.032,696.646,886.259,696.893,885.343,700.023z"/>
<path fill="#D1F0F4" d="M1071.862,720.281v97.684c0,0-7.793-1.558-14.543-5.19c-6.75-3.647-19.219-7.264-19.219-7.264l-8.324-6.126
	l-10.381-8.962c0,0-2.602,3.896-5.205,8.962c-2.588,5.066-11.426,11.301-14.545,8.713c-3.115-2.603-5.719-15.071-6.748-17.145
	c-1.045-2.09-12.471-13-13.514-15.073c-1.045-2.073,6.234-7.278,9.867-6.749c3.646,0.514,16.117-2.603,16.117-2.603
	s1.293-4.161-0.531-4.412c-1.807-0.265-6.234-0.265-10.381-1.558c-4.162-1.311-6.764-0.266-9.615-2.868
	c-2.854-2.588-5.973-5.19-8.574-5.97c-2.604-0.78-9.352-2.338-10.91-4.162c-1.559-1.81-9.088-3.632-10.912-6.484
	c-1.824-2.868-3.664-7.544-3.771-8.839c-0.125-1.292,8.182-6.748,12.344-8.059c4.162-1.293,9.867-3.366,15.322-4.924
	c5.455-1.56,8.324-2.869,13,0c4.678,2.853,10.646,7.871,11.941,11.471c1.309,3.586,5.578,6.453,7.98,9.306
	c2.414,2.853,5.533,4.162,5.533,7.529c0,3.382-1.295,5.72,0,6.499c1.293,0.78,4.676,0.78,6.234,2.073
	c1.559,1.31,3.383,0.53,7.793,2.338c4.41,1.824,10.646,0.266,11.955-1.558c1.295-1.809,2.338-1.559,3.631-6.485
	c1.295-4.94,2.854-8.572,5.191-12.22C1053.937,734.573,1071.862,720.281,1071.862,720.281"/>
<path fill="none" stroke="#FFFFFF" stroke-miterlimit="10" d="M1071.862,720.281v97.684c0,0-7.793-1.558-14.543-5.19
	c-6.75-3.647-19.219-7.264-19.219-7.264l-8.324-6.126l-10.381-8.962c0,0-2.602,3.896-5.205,8.962
	c-2.588,5.066-11.426,11.301-14.545,8.713c-3.115-2.603-5.719-15.071-6.748-17.145c-1.045-2.09-12.471-13-13.514-15.073
	c-1.045-2.073,6.234-7.278,9.867-6.749c3.646,0.514,16.117-2.603,16.117-2.603s1.293-4.161-0.531-4.412
	c-1.807-0.265-6.234-0.265-10.381-1.558c-4.162-1.311-6.764-0.266-9.615-2.868c-2.854-2.588-5.973-5.19-8.574-5.97
	c-2.604-0.78-9.352-2.338-10.91-4.162c-1.559-1.81-9.088-3.632-10.912-6.484c-1.824-2.868-3.664-7.544-3.771-8.839
	c-0.125-1.292,8.182-6.748,12.344-8.059c4.162-1.293,9.867-3.366,15.322-4.924c5.455-1.56,8.324-2.869,13,0
	c4.678,2.853,10.646,7.871,11.941,11.471c1.309,3.586,5.578,6.453,7.98,9.306c2.414,2.853,5.533,4.162,5.533,7.529
	c0,3.382-1.295,5.72,0,6.499c1.293,0.78,4.676,0.78,6.234,2.073c1.559,1.31,3.383,0.53,7.793,2.338
	c4.41,1.824,10.646,0.266,11.955-1.558c1.295-1.809,2.338-1.559,3.631-6.485c1.295-4.94,2.854-8.572,5.191-12.22
	C1053.937,734.573,1071.862,720.281,1071.862,720.281z"/>
<path fill="#D1F0F4" d="M331.74,804.981c-0.779,4.925-1.044,8.572-1.044,14.542s-0.515,17.66-1.56,21.308
	c-1.028,3.633-1.293,8.308-3.896,8.823c-2.587,0.529-12.984,1.558-17.147,0c-4.145-1.559-11.425-1.559-14.028-4.147
	c-2.587-2.602-6.234-8.572-10.911-10.661c-4.676-2.073-14.028-10.132-16.102-11.939c-2.073-1.824-8.058-6.235-10.396-7.544
	c-2.338-1.295-9.352-4.677-11.425-7.794c-2.073-3.116-6.5-9.602-8.572-11.425c-2.074-1.824-14.028-9.353-16.102-12.734
	c-2.089-3.367-4.676-11.161-6.499-14.808c-1.824-3.633-9.618-12.72-10.911-17.926c-1.295-5.19-3.898-10.646-4.942-12.984
	c-1.029-2.339-5.19-11.425-8.042-15.853c-2.868-4.41-3.648-9.087-6.5-11.159c-2.853-2.09-9.352-6.235-11.425-7.794
	c-2.089-1.559-6.5-3.382-7.793-7.544c-1.309-4.146-2.604-11.69-5.721-15.837c-3.117-4.162-5.72-11.69-10.396-15.072
	c-4.675-3.382-9.601-6.749-12.204-8.573c-2.604-1.823-11.426-7.794-14.028-15.588c-2.603-7.793-2.338-12.733-4.941-15.853
	c-2.587-3.116-11.16-4.924-14.028-8.821c-2.853-3.896-6.236-5.455-9.603-9.352c-3.382-3.898-8.324-10.661-11.69-13.249
	c-3.383-2.604-9.353-6.766-10.662-10.397c-1.294-3.631-3.241-17.925-3.241-17.925s10.521-0.39,17.146,3.896
	c6.624,4.286,9.742,4.677,15.977,5.067c6.235,0.389,22.601-0.781,25.718,2.337c3.117,3.117,12.47,5.456,14.418,10.521
	s8.183,18.314,11.69,22.991c3.507,4.676,4.677,2.727,7.405,5.845c2.727,3.117,10.91,11.689,14.028,13.249
	c3.117,1.56,7.794,3.896,10.521,6.624s7.403,2.338,10.132,6.626c2.728,4.285,8.573,7.793,9.741,9.74
	c1.169,1.949,9.743,2.339,11.69,4.677c1.948,2.338,9.353,5.456,12.081,7.404s3.008,2.992,7.934,5.97
	c4.926,2.992,7.653,3.382,9.991,6.11c2.337,2.728,5.065,2.337,5.456,5.065c0.389,2.728,0.389,5.455,0,8.963
	c-0.391,3.507,1.947,5.455,3.896,5.845c1.949,0.391,8.183-1.559,10.521,0s7.014,0.779,9.742,4.286c2.727,3.508,0.982,6.438,0,8.964
	c-0.981,2.524-0.203,5.455,1.465,5.641c1.653,0.204,5.549-0.373,7.108,1.965c1.558,2.338,6.11,7.466,7.918,12.657
	c1.823,5.19,5.456,8.572,5.456,11.955c0,3.367,1.044,9.866,0,14.278c-1.029,4.425-1.56,3.646-1.56,9.616s-0.779,11.176,0.779,11.176
	c1.559,0,4.677-1.044,5.72-2.339c1.045-1.309,1.045-5.72,4.942-7.014c3.897-1.31,7.529-3.382,10.911-1.31
	c3.366,2.09,8.042,8.06,10.911,10.662c2.852,2.588,4.146,1.294,5.455,7.528C336.416,789.908,332.519,800.056,331.74,804.981"/>
<path fill="none" stroke="#FFFFFF" stroke-miterlimit="10" d="M331.74,804.981c-0.779,4.925-1.044,8.572-1.044,14.542
	s-0.515,17.66-1.56,21.308c-1.028,3.633-1.293,8.308-3.896,8.823c-2.587,0.529-12.984,1.558-17.147,0
	c-4.145-1.559-11.425-1.559-14.028-4.147c-2.587-2.602-6.234-8.572-10.911-10.661c-4.676-2.073-14.028-10.132-16.102-11.939
	c-2.073-1.824-8.058-6.235-10.396-7.544c-2.338-1.295-9.352-4.677-11.425-7.794c-2.073-3.116-6.5-9.602-8.572-11.425
	c-2.074-1.824-14.028-9.353-16.102-12.734c-2.089-3.367-4.676-11.161-6.499-14.808c-1.824-3.633-9.618-12.72-10.911-17.926
	c-1.295-5.19-3.898-10.646-4.942-12.984c-1.029-2.339-5.19-11.425-8.042-15.853c-2.868-4.41-3.648-9.087-6.5-11.159
	c-2.853-2.09-9.352-6.235-11.425-7.794c-2.089-1.559-6.5-3.382-7.793-7.544c-1.309-4.146-2.604-11.69-5.721-15.837
	c-3.117-4.162-5.72-11.69-10.396-15.072c-4.675-3.382-9.601-6.749-12.204-8.573c-2.604-1.823-11.426-7.794-14.028-15.588
	c-2.603-7.793-2.338-12.733-4.941-15.853c-2.587-3.116-11.16-4.924-14.028-8.821c-2.853-3.896-6.236-5.455-9.603-9.352
	c-3.382-3.898-8.324-10.661-11.69-13.249c-3.383-2.604-9.353-6.766-10.662-10.397c-1.294-3.631-3.241-17.925-3.241-17.925
	s10.521-0.39,17.146,3.896c6.624,4.286,9.742,4.677,15.977,5.067c6.235,0.389,22.601-0.781,25.718,2.337
	c3.117,3.117,12.47,5.456,14.418,10.521s8.183,18.314,11.69,22.991c3.507,4.676,4.677,2.727,7.405,5.845
	c2.727,3.117,10.91,11.689,14.028,13.249c3.117,1.56,7.794,3.896,10.521,6.624s7.403,2.338,10.132,6.626
	c2.728,4.285,8.573,7.793,9.741,9.74c1.169,1.949,9.743,2.339,11.69,4.677c1.948,2.338,9.353,5.456,12.081,7.404
	s3.008,2.992,7.934,5.97c4.926,2.992,7.653,3.382,9.991,6.11c2.337,2.728,5.065,2.337,5.456,5.065c0.389,2.728,0.389,5.455,0,8.963
	c-0.391,3.507,1.947,5.455,3.896,5.845c1.949,0.391,8.183-1.559,10.521,0s7.014,0.779,9.742,4.286c2.727,3.508,0.982,6.438,0,8.964
	c-0.981,2.524-0.203,5.455,1.465,5.641c1.653,0.204,5.549-0.373,7.108,1.965c1.558,2.338,6.11,7.466,7.918,12.657
	c1.823,5.19,5.456,8.572,5.456,11.955c0,3.367,1.044,9.866,0,14.278c-1.029,4.425-1.56,3.646-1.56,9.616s-0.779,11.176,0.779,11.176
	c1.559,0,4.677-1.044,5.72-2.339c1.045-1.309,1.045-5.72,4.942-7.014c3.897-1.31,7.529-3.382,10.911-1.31
	c3.366,2.09,8.042,8.06,10.911,10.662c2.852,2.588,4.146,1.294,5.455,7.528C336.416,789.908,332.519,800.056,331.74,804.981z"/>
<path fill="#D1F0F4" d="M348.372,770.424c-1.824,0-5.845,0.125-7.669-1.824c-1.823-1.946-3.507-3.366-5.315-4.145
	c-1.823-0.78-4.552-1.56-5.861-4.038c-1.293-2.462-1.684-4.364-3.756-4.582c-2.089-0.218-6.111-1.123-6.235-2.291
	c0,0,3.243-4.286,3.508-6.501c0.249-2.212,0.514-4.285,1.807-4.676c1.31-0.39,7.669-2.338,9.104,0
	c1.418,2.339,2.338,4.162,3.896,7.528c1.56,3.384,3.117,5.986,5.19,8.323c2.074,2.339,6.11,5.315,6.36,7.265
	C349.666,767.432,350.18,770.424,348.372,770.424"/>
<path fill="none" stroke="#FFFFFF" stroke-miterlimit="10" d="M348.372,770.424c-1.824,0-5.845,0.125-7.669-1.824
	c-1.823-1.946-3.507-3.366-5.315-4.145c-1.823-0.78-4.552-1.56-5.861-4.038c-1.293-2.462-1.684-4.364-3.756-4.582
	c-2.089-0.218-6.111-1.123-6.235-2.291c0,0,3.243-4.286,3.508-6.501c0.249-2.212,0.514-4.285,1.807-4.676
	c1.31-0.39,7.669-2.338,9.104,0c1.418,2.339,2.338,4.162,3.896,7.528c1.56,3.384,3.117,5.986,5.19,8.323
	c2.074,2.339,6.11,5.315,6.36,7.265C349.666,767.432,350.18,770.424,348.372,770.424z"/>
<path fill="#D1F0F4" d="M551.706,908.963c-0.188,2.915-3.897,11.098-8.168,10.132c-4.302-0.981-9.555-1.186-13.061-2.743
	c-3.508-1.56-7.794-3.306-11.504-3.306c-3.694,0-10.506-0.188-12.844,0.779s-9.757,1.747-13.249,1.747
	c-3.523,0-10.911-0.966-16.569-4.085c-5.659-3.117-10.131-5.643-15.79-7.793c-5.643-2.152-16.335-5.065-19.655-6.048
	c-3.319-0.967-8.199-3.305-12.096-3.305c-3.896,0-17.349-0.187-20.466-0.187c-3.117,0-9.726,0-11.877-0.779
	s-7.014-1.964-10.132-2.151c-3.117-0.188-12.08-0.967-15.197-1.56c-3.117-0.591-10.521-2.728-14.808-3.709
	c-4.286-0.967-8.183-1.559-12.858-3.492c-4.677-1.963-8.184-1.963-9.353-3.319c-1.168-1.356-7.014-2.728-7.606-4.474
	c-0.577-1.762-1.934-10.131,3.522-11.69c0,0,2.712-1.56,3.897-3.896c1.153-2.338,2.135-3.711,3.896-3.711
	c1.745,0,5.643-3.896,6.812-3.896s7.217-2.339,10.911,0c3.694,2.338,14.231,5.004,17.145,5.222
	c2.915,0.233,7.217-0.733,10.132,1.403c2.916,2.135,4.1,1.761,8.776,3.117c4.676,1.355,13.825,1.761,15.774,3.693
	c1.948,1.964,4.864,3.71,5.845,5.456c0.982,1.761,31.174,0,31.174,0s7.218-5.05,9.742-5.456c2.526-0.373,6.422-1.154,8.574,0
	c2.15,1.185,6.625,4.489,8.759,5.456c2.152,0.982,18.907,0.982,22.025,2.93c3.118,1.948,6.234,0.593,9.352,6.236
	c3.119,5.641,3.897,8.572,6.812,11.689c2.93,3.117,5.081,3.896,8.199,5.268c3.119,1.356,16.165,3.305,20.061,3.305
	c3.897,0,8.963-0.389,10.708,1.949C550.349,904.085,551.909,906.031,551.706,908.963"/>
<path fill="none" stroke="#FFFFFF" stroke-miterlimit="10" d="M551.706,908.963c-0.188,2.915-3.897,11.098-8.168,10.132
	c-4.302-0.981-9.555-1.186-13.061-2.743c-3.508-1.56-7.794-3.306-11.504-3.306c-3.694,0-10.506-0.188-12.844,0.779
	s-9.757,1.747-13.249,1.747c-3.523,0-10.911-0.966-16.569-4.085c-5.659-3.117-10.131-5.643-15.79-7.793
	c-5.643-2.152-16.335-5.065-19.655-6.048c-3.319-0.967-8.199-3.305-12.096-3.305c-3.896,0-17.349-0.187-20.466-0.187
	c-3.117,0-9.726,0-11.877-0.779s-7.014-1.964-10.132-2.151c-3.117-0.188-12.08-0.967-15.197-1.56
	c-3.117-0.591-10.521-2.728-14.808-3.709c-4.286-0.967-8.183-1.559-12.858-3.492c-4.677-1.963-8.184-1.963-9.353-3.319
	c-1.168-1.356-7.014-2.728-7.606-4.474c-0.577-1.762-1.934-10.131,3.522-11.69c0,0,2.712-1.56,3.897-3.896
	c1.153-2.338,2.135-3.711,3.896-3.711c1.745,0,5.643-3.896,6.812-3.896s7.217-2.339,10.911,0c3.694,2.338,14.231,5.004,17.145,5.222
	c2.915,0.233,7.217-0.733,10.132,1.403c2.916,2.135,4.1,1.761,8.776,3.117c4.676,1.355,13.825,1.761,15.774,3.693
	c1.948,1.964,4.864,3.71,5.845,5.456c0.982,1.761,31.174,0,31.174,0s7.218-5.05,9.742-5.456c2.526-0.373,6.422-1.154,8.574,0
	c2.15,1.185,6.625,4.489,8.759,5.456c2.152,0.982,18.907,0.982,22.025,2.93c3.118,1.948,6.234,0.593,9.352,6.236
	c3.119,5.641,3.897,8.572,6.812,11.689c2.93,3.117,5.081,3.896,8.199,5.268c3.119,1.356,16.165,3.305,20.061,3.305
	c3.897,0,8.963-0.389,10.708,1.949C550.349,904.085,551.909,906.031,551.706,908.963z"/>
<path fill="#D1F0F4" d="M580.614,919.166c0,0-3.896-1.573-4.157-4.041c-0.259-2.468-1.818-2.987,0.52-4.027
	c2.338-1.039,5.715-1.818,8.574-3.117c2.858-1.299,6.234-1.169,7.404,0c1.168,1.17,2.208,3.768,1.688,5.716
	s-2.338,3.896-5.714,4.286C585.55,918.371,583.472,920.091,580.614,919.166"/>
<path fill="none" stroke="#FFFFFF" stroke-miterlimit="10" d="M580.614,919.166c0,0-3.896-1.573-4.157-4.041
	c-0.259-2.468-1.818-2.987,0.52-4.027c2.338-1.039,5.715-1.818,8.574-3.117c2.858-1.299,6.234-1.169,7.404,0
	c1.168,1.17,2.208,3.768,1.688,5.716s-2.338,3.896-5.714,4.286C585.55,918.371,583.472,920.091,580.614,919.166z"/>
<path fill="#D1F0F4" d="M609.45,911.747c0,0-1.559,1.949-1.559,4.937c0,2.988-0.779,5.065,0.78,8.183
	c1.558,3.118,0.909,5.456,3.896,5.716c2.988,0.26,7.535,1.299,9.223,0c1.688-1.3,4.806-3.247,7.274-3.637
	c2.468-0.391,11.169-2.858,12.729-2.858c1.559,0,6.754-0.389,9.612-1.947c2.858-1.56,6.755-3.897,7.794-4.937
	c1.039-1.039,4.285-6.234,3.376-7.533c-0.909-1.3-0.649-3.247-3.766-4.027c-3.119-0.779-5.975,0.261-7.535,2.078
	c-1.558,1.818-3.117,4.417-5.195,4.677c-2.079,0.26-6.366,0-8.185-0.391c-1.818-0.389-3.635-0.519-5.714-0.909
	c-2.078-0.39-12.079-0.52-14.417-0.26S609.45,911.747,609.45,911.747"/>
<path fill="none" stroke="#FFFFFF" stroke-miterlimit="10" d="M609.45,911.747c0,0-1.559,1.949-1.559,4.937
	c0,2.988-0.779,5.065,0.78,8.183c1.558,3.118,0.909,5.456,3.896,5.716c2.988,0.26,7.535,1.299,9.223,0
	c1.688-1.3,4.806-3.247,7.274-3.637c2.468-0.391,11.169-2.858,12.729-2.858c1.559,0,6.754-0.389,9.612-1.947
	c2.858-1.56,6.755-3.897,7.794-4.937c1.039-1.039,4.285-6.234,3.376-7.533c-0.909-1.3-0.649-3.247-3.766-4.027
	c-3.119-0.779-5.975,0.261-7.535,2.078c-1.558,1.818-3.117,4.417-5.195,4.677c-2.079,0.26-6.366,0-8.185-0.391
	c-1.818-0.389-3.635-0.519-5.714-0.909c-2.078-0.39-12.079-0.52-14.417-0.26S609.45,911.747,609.45,911.747z"/>
<path fill="#D1F0F4" d="M658.16,942.013h29.354c0,0,4.938,1.559,6.756,3.507c1.818,1.949,5.195,4.936,5.195,6.754
	s-0.648,5.196-6.756,6.236c-6.104,1.038-9.352,1.946-14.547,0c-5.196-1.949-8.962-4.026-11.69-6.106
	C663.746,950.326,658.549,943.571,658.16,942.013"/>
<path fill="none" stroke="#FFFFFF" stroke-miterlimit="10" d="M658.16,942.013h29.354c0,0,4.938,1.559,6.756,3.507
	c1.818,1.949,5.195,4.936,5.195,6.754s-0.648,5.196-6.756,6.236c-6.104,1.038-9.352,1.946-14.547,0
	c-5.196-1.949-8.962-4.026-11.69-6.106C663.746,950.326,658.549,943.571,658.16,942.013z"/>
<path fill="#D1F0F4" d="M680.306,916.358c0,0,3.313-5.65,7.795-4.676c4.48,0.975,7.402,2.338,9.938,3.313
	c2.533,0.975,11.688-0.779,14.807,0.39c3.117,1.169,6.43,2.338,9.352,0.974c2.924-1.363,9.742-0.974,11.301-3.313
	c1.559-2.338,7.793-3.702,9.742-3.896c1.949-0.195,7.988,0,9.936,0c1.949,0,11.303-1.561,12.861-1.364
	c1.559,0.194,15.781-1.56,15.781-1.56h16.563c0,0-0.393,3.313-1.17,4.481c-0.779,1.17-1.949,3.702-6.236,4.871
	c-4.285,1.169-14.611,2.008-15.781,1.394c-1.168-0.614-23.186,0.249-23.965,0.206c-0.779-0.04-5.066,1.323-8.184,2.882
	c-3.117,1.558-6.039,1.364-9.742,3.118c-3.701,1.753-10.717,2.922-14.807,5.065c-4.092,2.143-6.625,3.117-11.689,2.143
	c-5.066-0.975-8.768-2.729-12.666-3.701c-3.896-0.975-11.105-3.118-12.273-4.676C680.696,920.45,680.306,916.358,680.306,916.358"/>
<path fill="none" stroke="#FFFFFF" stroke-miterlimit="10" d="M680.306,916.358c0,0,3.313-5.65,7.795-4.676
	c4.48,0.975,7.402,2.338,9.938,3.313c2.533,0.975,11.688-0.779,14.807,0.39c3.117,1.169,6.43,2.338,9.352,0.974
	c2.924-1.363,9.742-0.974,11.301-3.313c1.559-2.338,7.793-3.702,9.742-3.896c1.949-0.195,7.988,0,9.936,0
	c1.949,0,11.303-1.561,12.861-1.364c1.559,0.194,15.781-1.56,15.781-1.56h16.563c0,0-0.393,3.313-1.17,4.481
	c-0.779,1.17-1.949,3.702-6.236,4.871c-4.285,1.169-14.611,2.008-15.781,1.394c-1.168-0.614-23.186,0.249-23.965,0.206
	c-0.779-0.04-5.066,1.323-8.184,2.882c-3.117,1.558-6.039,1.364-9.742,3.118c-3.701,1.753-10.717,2.922-14.807,5.065
	c-4.092,2.143-6.625,3.117-11.689,2.143c-5.066-0.975-8.768-2.729-12.666-3.701c-3.896-0.975-11.105-3.118-12.273-4.676
	C680.696,920.45,680.306,916.358,680.306,916.358z"/>
<path fill="#D1F0F4" d="M745.837,972.278c0,0,4.156-9.92,7.273-12.624c3.119-2.704,5.197-4.263,8.053-5.821
	c2.859-1.559,6.756-11.691,7.275-13.51c0.52-1.817,4.936-4.677,7.793-6.234c2.857-1.559,10.652-1.451,13.25-3.323
	c2.598-1.873,14.807-8.106,16.627-8.626c1.818-0.521,7.273-2.079,11.949-2.339s8.053-0.531,12.209-1.305
	c4.158-0.773,10.65-3.89,12.471-4.411c1.818-0.52,10.91-5.195,12.99-3.636c2.076,1.558,5.455,3.116,4.416,4.415
	c-1.041,1.3-3.898,7.016-8.574,7.275s-16.885,4.415-18.965,5.195c-2.078,0.778-4.674,1.146-8.832,3.431
	c-4.156,2.284-10.65,2.804-13.248,5.401c-2.598,2.599-6.563,4.677-7.438,5.846c-0.877,1.17-11.008,6.082-13.346,8.82
	c-2.338,2.74-3.896,6.117-8.834,7.676c-4.936,1.56-7.793,2.079-10.91,3.897C766.88,964.224,753.89,973.317,745.837,972.278"/>
<path fill="none" stroke="#FFFFFF" stroke-miterlimit="10" d="M745.837,972.278c0,0,4.156-9.92,7.273-12.624
	c3.119-2.704,5.197-4.263,8.053-5.821c2.859-1.559,6.756-11.691,7.275-13.51c0.52-1.817,4.936-4.677,7.793-6.234
	c2.857-1.559,10.652-1.451,13.25-3.323c2.598-1.873,14.807-8.106,16.627-8.626c1.818-0.521,7.273-2.079,11.949-2.339
	s8.053-0.531,12.209-1.305c4.158-0.773,10.65-3.89,12.471-4.411c1.818-0.52,10.91-5.195,12.99-3.636
	c2.076,1.558,5.455,3.116,4.416,4.415c-1.041,1.3-3.898,7.016-8.574,7.275s-16.885,4.415-18.965,5.195
	c-2.078,0.778-4.674,1.146-8.832,3.431c-4.156,2.284-10.65,2.804-13.248,5.401c-2.598,2.599-6.563,4.677-7.438,5.846
	c-0.877,1.17-11.008,6.082-13.346,8.82c-2.338,2.74-3.896,6.117-8.834,7.676c-4.936,1.56-7.793,2.079-10.91,3.897
	C766.88,964.224,753.89,973.317,745.837,972.278z"/>
<path fill="#D1F0F4" d="M789.481,930.766c0,0,3.377,4.622,4.936,5.142c1.559,0.521,8.248,2.339,8.67,6.105"/>
<path fill="none" stroke="#FFFFFF" stroke-miterlimit="10" d="M789.481,930.766c0,0,3.377,4.622,4.936,5.142
	c1.559,0.521,8.248,2.339,8.67,6.105"/>
</svg>
